<?xml version="1.0" encoding="UTF-8" standalone="no"?>
<!-- Generator: Adobe Illustrator 18.0.0, SVG Export Plug-In . SVG Version: 6.00 Build 0)  -->

<svg
   xmlns:dc="http://purl.org/dc/elements/1.1/"
   xmlns:cc="http://creativecommons.org/ns#"
   xmlns:rdf="http://www.w3.org/1999/02/22-rdf-syntax-ns#"
   xmlns:svg="http://www.w3.org/2000/svg"
   xmlns="http://www.w3.org/2000/svg"
   xmlns:sodipodi="http://sodipodi.sourceforge.net/DTD/sodipodi-0.dtd"
   xmlns:inkscape="http://www.inkscape.org/namespaces/inkscape"
   version="1.1"
   id="Capa_1"
   x="0px"
   y="0px"
   viewBox="0 0 58 58"
   style="enable-background:new 0 0 58 58;"
   xml:space="preserve"
   sodipodi:docname="coin.svg"
   inkscape:version="0.92.4 (5da689c313, 2019-01-14)"><metadata
   id="metadata39"><rdf:RDF><cc:Work
       rdf:about=""><dc:format>image/svg+xml</dc:format><dc:type
         rdf:resource="http://purl.org/dc/dcmitype/StillImage" /><dc:title></dc:title></cc:Work></rdf:RDF></metadata><defs
   id="defs37" /><sodipodi:namedview
   pagecolor="#ffffff"
   bordercolor="#666666"
   borderopacity="1"
   objecttolerance="10"
   gridtolerance="10"
   guidetolerance="10"
   inkscape:pageopacity="0"
   inkscape:pageshadow="2"
   inkscape:window-width="1920"
   inkscape:window-height="1017"
   id="namedview35"
   showgrid="false"
   inkscape:zoom="1.4385966"
   inkscape:cx="29.678079"
   inkscape:cy="40.936069"
   inkscape:window-x="-8"
   inkscape:window-y="-8"
   inkscape:window-maximized="1"
   inkscape:current-layer="layer3" />

<g
   id="g4">
</g>
<g
   id="g6">
</g>
<g
   id="g8">
</g>
<g
   id="g10">
</g>
<g
   id="g12">
</g>
<g
   id="g14">
</g>
<g
   id="g16">
</g>
<g
   id="g18">
</g>
<g
   id="g20">
</g>
<g
   id="g22">
</g>
<g
   id="g24">
</g>
<g
   id="g26">
</g>
<g
   id="g28">
</g>
<g
   id="g30">
</g>
<g
   id="g32">
</g>
<g
   inkscape:groupmode="layer"
   id="layer2"
   inkscape:label="Origineel"
   style="display:none"><path
     d="M 32,0 C 30.979,0 29.975,0.076 28.985,0.21 27.953,0.072 26.972,0 26,0 18.638,0 11.999,3.571 7.34,9.264 7.293,9.306 7.259,9.356 7.221,9.406 5.736,11.245 4.46,13.304 3.428,15.532 3.402,15.581 3.379,15.629 3.36,15.682 2.649,17.239 2.056,18.875 1.6,20.579 1.555,20.675 1.535,20.78 1.522,20.889 0.861,23.465 0.5,26.185 0.5,29 c 0,4.404 0.872,8.579 2.423,12.321 0.014,0.04 0.027,0.078 0.046,0.116 0.93,2.218 2.1,4.28 3.473,6.145 0.035,0.048 0.064,0.099 0.107,0.14 1.39,1.865 2.983,3.526 4.74,4.942 0.05,0.055 0.11,0.096 0.172,0.139 C 15.588,56.075 20.599,58 26,58 26.972,58 27.953,57.928 28.985,57.79 29.975,57.924 30.979,58 32,58 46.061,58 57.5,44.991 57.5,29 57.5,13.009 46.061,0 32,0 Z m 17.217,20.202 c 0.523,-0.182 1.091,0.099 1.27,0.622 0.222,0.646 0.419,1.313 0.587,1.98 0.135,0.536 -0.19,1.079 -0.726,1.214 -0.082,0.021 -0.164,0.03 -0.245,0.03 -0.447,0 -0.854,-0.302 -0.969,-0.756 -0.155,-0.614 -0.336,-1.227 -0.54,-1.82 -0.178,-0.522 0.1,-1.091 0.623,-1.27 z M 5.428,42 h 3.788 c 0.157,0.354 0.318,0.705 0.487,1.051 0.073,0.149 0.149,0.296 0.225,0.444 0.205,0.402 0.417,0.797 0.638,1.186 0.082,0.145 0.161,0.292 0.246,0.436 0.177,0.299 0.362,0.592 0.548,0.884 H 7.774 C 6.891,44.754 6.109,43.415 5.428,42 Z M 4.968,17 H 8.795 C 8.62,17.437 8.454,17.879 8.297,18.327 8.254,18.451 8.21,18.574 8.168,18.698 8.024,19.128 7.89,19.562 7.763,20 H 3.857 c 0.318,-1.031 0.69,-2.031 1.111,-3 z m 3.557,-6 h 3.503 c -0.122,0.175 -0.245,0.349 -0.364,0.527 -0.295,0.443 -0.58,0.894 -0.852,1.356 -0.084,0.143 -0.164,0.291 -0.246,0.436 -0.221,0.389 -0.434,0.785 -0.638,1.186 C 9.853,14.653 9.776,14.799 9.703,14.949 9.695,14.966 9.686,14.983 9.678,15 H 5.929 c 0.757,-1.427 1.629,-2.762 2.596,-4 z m 16.257,-0.772 c -0.146,0.074 -0.3,0.109 -0.453,0.109 -0.364,0 -0.715,-0.199 -0.892,-0.546 -0.251,-0.492 -0.056,-1.094 0.437,-1.345 0.623,-0.318 1.267,-0.602 1.916,-0.845 0.516,-0.193 1.094,0.068 1.287,0.586 0.194,0.517 -0.069,1.093 -0.586,1.287 -0.578,0.217 -1.153,0.47 -1.709,0.754 z m 0.476,38.907 c -0.176,0.347 -0.528,0.547 -0.893,0.547 -0.152,0 -0.307,-0.035 -0.452,-0.108 -0.615,-0.312 -1.224,-0.665 -1.809,-1.048 -0.462,-0.302 -0.591,-0.922 -0.289,-1.384 0.304,-0.461 0.922,-0.591 1.385,-0.289 0.523,0.343 1.068,0.659 1.619,0.938 0.492,0.25 0.689,0.852 0.439,1.344 z M 13.644,33.94 c 0.534,-0.136 1.079,0.193 1.212,0.729 0.153,0.613 0.333,1.226 0.536,1.82 0.178,0.523 -0.101,1.091 -0.624,1.269 -0.107,0.037 -0.216,0.054 -0.323,0.054 -0.416,0 -0.805,-0.262 -0.946,-0.678 -0.221,-0.648 -0.417,-1.315 -0.583,-1.982 -0.134,-0.536 0.192,-1.078 0.728,-1.212 z M 12.167,29.021 V 29 c 0,-0.682 0.027,-1.368 0.08,-2.037 0.044,-0.55 0.523,-0.958 1.076,-0.918 0.551,0.044 0.961,0.526 0.918,1.076 -0.049,0.618 -0.074,1.25 -0.074,1.879 0,0.552 -0.448,1.011 -1,1.011 -0.552,0 -1,-0.437 -1,-0.99 z m 3.211,-7.47 c -0.142,0.417 -0.53,0.679 -0.947,0.679 -0.106,0 -0.215,-0.018 -0.321,-0.053 -0.523,-0.178 -0.803,-0.745 -0.626,-1.269 0.221,-0.65 0.472,-1.299 0.747,-1.928 0.222,-0.507 0.81,-0.736 1.317,-0.516 0.506,0.221 0.737,0.811 0.516,1.317 -0.253,0.578 -0.483,1.174 -0.686,1.77 z m 1.137,19.747 c 0.457,-0.309 1.079,-0.189 1.388,0.27 0.353,0.523 0.732,1.033 1.127,1.515 0.35,0.427 0.288,1.057 -0.139,1.408 -0.186,0.152 -0.411,0.227 -0.634,0.227 -0.289,0 -0.576,-0.125 -0.774,-0.366 -0.434,-0.53 -0.851,-1.09 -1.239,-1.665 -0.307,-0.458 -0.187,-1.08 0.271,-1.389 z M 19.004,14.95 c -0.198,0.242 -0.485,0.367 -0.775,0.367 -0.223,0 -0.446,-0.074 -0.632,-0.226 -0.428,-0.35 -0.491,-0.979 -0.142,-1.407 0.441,-0.541 0.91,-1.06 1.391,-1.545 0.391,-0.391 1.023,-0.393 1.415,-0.004 0.392,0.39 0.394,1.022 0.004,1.415 -0.436,0.438 -0.86,0.909 -1.261,1.4 z M 2.5,29 c 0,-0.674 0.036,-1.338 0.078,-2 H 6.565 C 6.564,27.016 6.564,27.032 6.563,27.048 6.526,27.694 6.5,28.343 6.5,29 c 0,0.335 0.012,0.667 0.022,1 H 2.539 C 2.528,29.666 2.5,29.337 2.5,29 Z m 4.136,3 c 0.038,0.421 0.087,0.839 0.141,1.255 0.004,0.03 0.006,0.061 0.01,0.092 0.074,0.556 0.164,1.107 0.265,1.653 H 3.108 C 2.913,34.018 2.759,33.019 2.66,32 Z m 0.62,-10 c -0.026,0.118 -0.048,0.238 -0.072,0.356 -0.027,0.132 -0.055,0.263 -0.081,0.395 -0.122,0.627 -0.23,1.26 -0.315,1.902 -0.004,0.03 -0.006,0.061 -0.01,0.092 C 6.766,24.83 6.759,24.915 6.748,25 H 2.779 c 0.132,-1.018 0.299,-2.022 0.528,-3 z m 0.239,15 c 0.031,0.122 0.06,0.246 0.092,0.367 0.012,0.044 0.022,0.09 0.034,0.134 0.165,0.609 0.35,1.208 0.548,1.8 0.042,0.125 0.086,0.247 0.129,0.371 0.037,0.11 0.074,0.22 0.113,0.328 H 4.558 C 4.179,39.029 3.853,38.027 3.575,37 Z M 29.03,50.288 c 0.066,-0.549 0.567,-0.933 1.112,-0.875 0.612,0.073 1.237,0.11 1.858,0.11 0.552,0 1.043,0.448 1.043,1 0,0.552 -0.405,1 -0.957,1 H 32 c -0.7,0 -1.406,-0.042 -2.096,-0.124 -0.548,-0.065 -0.94,-0.563 -0.874,-1.111 z m 4.906,-41.7 C 33.897,8.588 33.858,8.586 33.819,8.581 33.217,8.511 32.605,8.476 32,8.476 c -0.552,0 -1.021,-0.448 -1.021,-1 0,-0.552 0.426,-1 0.979,-1 H 32 c 0.682,0 1.371,0.04 2.049,0.119 0.548,0.063 0.942,0.56 0.878,1.108 -0.059,0.509 -0.491,0.885 -0.991,0.885 z M 21.44,2.614 C 21.109,2.786 20.782,2.966 20.459,3.153 20.278,3.258 20.096,3.359 19.918,3.469 19.641,3.639 19.37,3.819 19.1,4 H 17.175 C 18.637,3.316 20.163,2.777 21.754,2.442 21.647,2.495 21.546,2.559 21.44,2.614 Z M 13.732,6 h 2.762 c -0.248,0.217 -0.496,0.435 -0.737,0.662 -0.201,0.19 -0.396,0.387 -0.592,0.584 -0.198,0.199 -0.394,0.401 -0.586,0.606 -0.185,0.197 -0.37,0.393 -0.55,0.596 C 13.869,8.628 13.716,8.815 13.561,9 H 10.259 C 11.333,7.883 12.492,6.876 13.732,6 Z M 9.324,48 h 3.432 c 0.113,0.148 0.225,0.296 0.341,0.441 0.302,0.38 0.613,0.75 0.932,1.111 0.179,0.203 0.365,0.399 0.55,0.596 0.193,0.206 0.389,0.408 0.588,0.607 0.08,0.08 0.156,0.166 0.237,0.245 H 12.396 C 11.297,50.101 10.27,49.097 9.324,48 Z m 12.429,7.558 C 19.46,55.075 17.293,54.189 15.283,53 h 2.419 c 0.128,0.099 0.26,0.192 0.389,0.288 0.207,0.154 0.414,0.309 0.625,0.456 0.393,0.274 0.794,0.537 1.201,0.787 0.178,0.109 0.36,0.211 0.541,0.316 0.323,0.187 0.65,0.367 0.981,0.539 0.107,0.055 0.208,0.119 0.314,0.172 z m 18.414,-6.025 c -0.623,0.32 -1.267,0.605 -1.914,0.849 -0.116,0.044 -0.235,0.065 -0.353,0.065 -0.404,0 -0.785,-0.247 -0.936,-0.648 -0.195,-0.517 0.066,-1.094 0.583,-1.288 0.576,-0.217 1.15,-0.472 1.706,-0.757 0.491,-0.254 1.094,-0.059 1.346,0.433 0.254,0.491 0.059,1.094 -0.432,1.346 z m 1.983,-38.7 c -0.192,0.294 -0.512,0.454 -0.839,0.454 -0.187,0 -0.376,-0.052 -0.545,-0.162 -0.523,-0.341 -1.068,-0.655 -1.621,-0.934 -0.493,-0.249 -0.691,-0.85 -0.442,-1.343 0.249,-0.491 0.85,-0.691 1.343,-0.442 0.618,0.312 1.227,0.663 1.812,1.043 0.463,0.302 0.593,0.922 0.292,1.384 z m 4.424,33.448 c -0.441,0.542 -0.908,1.063 -1.389,1.548 -0.195,0.197 -0.453,0.296 -0.71,0.296 -0.254,0 -0.509,-0.097 -0.704,-0.29 -0.392,-0.389 -0.395,-1.022 -0.006,-1.414 0.435,-0.438 0.857,-0.91 1.257,-1.402 0.349,-0.428 0.979,-0.494 1.407,-0.145 0.428,0.348 0.493,0.978 0.145,1.407 z m 0.329,-27.444 c -0.321,0 -0.636,-0.154 -0.829,-0.439 -0.354,-0.522 -0.734,-1.031 -1.13,-1.512 -0.351,-0.426 -0.29,-1.057 0.136,-1.408 0.426,-0.352 1.057,-0.29 1.408,0.136 0.436,0.529 0.854,1.088 1.243,1.663 0.31,0.457 0.19,1.079 -0.268,1.389 -0.172,0.116 -0.367,0.171 -0.56,0.171 z m 3.627,20.212 c -0.22,0.653 -0.47,1.303 -0.743,1.93 -0.164,0.376 -0.532,0.601 -0.917,0.601 -0.133,0 -0.269,-0.027 -0.399,-0.083 -0.506,-0.221 -0.738,-0.81 -0.518,-1.316 0.25,-0.575 0.479,-1.17 0.681,-1.769 0.176,-0.522 0.743,-0.805 1.267,-0.629 0.524,0.175 0.806,0.742 0.629,1.266 z m 1.227,-6.056 c -0.041,0.524 -0.479,0.923 -0.996,0.923 -0.026,0 -0.052,-0.001 -0.078,-0.003 -0.551,-0.042 -0.962,-0.523 -0.92,-1.074 0.047,-0.606 0.071,-1.225 0.071,-1.838 0,-0.552 0.448,-1.032 1,-1.032 0.552,0 1,0.415 1,0.967 V 29 c -0.001,0.665 -0.026,1.335 -0.077,1.993 z"
     id="path2"
     style="fill:#ffddff;fill-opacity:1"
     inkscape:connector-curvature="0" /></g><g
   inkscape:groupmode="layer"
   id="layer1"
   inkscape:label="Coin"><path
     style="opacity:1;fill:none;fill-opacity:1;stroke:#7e8a9f;stroke-width:1.4862529;stroke-linecap:round;stroke-linejoin:round;stroke-miterlimit:4;stroke-dasharray:none;stroke-dashoffset:0.96529996;stroke-opacity:1"
     d="M 27.617188 0.78320312 A 25.057617 28.40288 0 0 0 25.113281 0.78710938 A 25.057617 28.40288 0 0 0 1.3886719 30.570312 A 25.057617 28.40288 0 0 0 27.613281 57.523438 A 25.057617 28.40288 0 0 0 29.080078 57.386719 A 25.057617 28.40288 0 0 1 6.8613281 30.613281 A 25.057617 28.40288 0 0 1 29.240234 0.96289062 A 25.057617 28.40288 0 0 0 27.617188 0.78320312 z "
     id="path875-6"
     inkscape:export-filename="C:\Users\Yves Muyters\Dienstenbedrijf Easylife BVBA\Team site - TASKBOOKER\02. Ontwerpen, designs, visuals\Icoontjes\Coin.png"
     inkscape:export-xdpi="100.91785"
     inkscape:export-ydpi="100.91785" /><path
     style="opacity:1;fill:none;fill-opacity:1;stroke:#7e8a9f;stroke-width:1.4862529;stroke-linecap:round;stroke-linejoin:round;stroke-miterlimit:4;stroke-dasharray:none;stroke-dashoffset:0.96529996;stroke-opacity:1"
     id="path875"
     sodipodi:type="arc"
     sodipodi:cx="31.888721"
     sodipodi:cy="29.19589"
     sodipodi:rx="25.057617"
     sodipodi:ry="28.40288"
     sodipodi:start="6.2374228"
     sodipodi:end="6.2291325"
     sodipodi:open="true"
     d="M 56.920105,27.896557 A 25.057617,28.40288 0 0 1 33.086898,57.566281 25.057617,28.40288 0 0 1 6.8623042,30.612823 25.057617,28.40288 0 0 1 30.586807,0.83137358 25.057617,28.40288 0 0 1 56.909742,27.661383"
     inkscape:export-filename="C:\Users\Yves Muyters\Dienstenbedrijf Easylife BVBA\Team site - TASKBOOKER\02. Ontwerpen, designs, visuals\Icoontjes\Coin.png"
     inkscape:export-xdpi="100.91785"
     inkscape:export-ydpi="100.91785" /><path
     style="fill:none;stroke:#7e8a9f;stroke-width:1.8;stroke-linecap:round;stroke-linejoin:miter;stroke-opacity:1;stroke-miterlimit:4;stroke-dasharray:none"
     d="m 13.815548,4.9969535 4.431402,0.08689"
     id="path837"
     inkscape:connector-curvature="0"
     inkscape:export-filename="C:\Users\Yves Muyters\Dienstenbedrijf Easylife BVBA\Team site - TASKBOOKER\02. Ontwerpen, designs, visuals\Icoontjes\Coin.png"
     inkscape:export-xdpi="100.91785"
     inkscape:export-ydpi="100.91785" /><path
     style="fill:none;stroke:#7e8a9f;stroke-width:1.8;stroke-linecap:round;stroke-linejoin:miter;stroke-miterlimit:4;stroke-dasharray:none;stroke-opacity:1"
     d="m 8.3828159,9.9406651 4.4314021,0.08689"
     id="path837-1"
     inkscape:connector-curvature="0"
     inkscape:export-filename="C:\Users\Yves Muyters\Dienstenbedrijf Easylife BVBA\Team site - TASKBOOKER\02. Ontwerpen, designs, visuals\Icoontjes\Coin.png"
     inkscape:export-xdpi="100.91785"
     inkscape:export-ydpi="100.91785" /><path
     style="fill:none;stroke:#7e8a9f;stroke-width:1.8;stroke-linecap:round;stroke-linejoin:miter;stroke-miterlimit:4;stroke-dasharray:none;stroke-opacity:1"
     d="m 4.7270956,15.961852 4.4314016,0.08689"
     id="path837-1-9"
     inkscape:connector-curvature="0"
     inkscape:export-filename="C:\Users\Yves Muyters\Dienstenbedrijf Easylife BVBA\Team site - TASKBOOKER\02. Ontwerpen, designs, visuals\Icoontjes\Coin.png"
     inkscape:export-xdpi="100.91785"
     inkscape:export-ydpi="100.91785" /><path
     style="fill:none;stroke:#7e8a9f;stroke-width:1.8;stroke-linecap:round;stroke-linejoin:miter;stroke-miterlimit:4;stroke-dasharray:none;stroke-opacity:1"
     d="m 3.0681975,20.969267 4.4314019,0.08689"
     id="path837-1-9-0"
     inkscape:connector-curvature="0"
     inkscape:export-filename="C:\Users\Yves Muyters\Dienstenbedrijf Easylife BVBA\Team site - TASKBOOKER\02. Ontwerpen, designs, visuals\Icoontjes\Coin.png"
     inkscape:export-xdpi="100.91785"
     inkscape:export-ydpi="100.91785" /><path
     style="fill:none;stroke:#7e8a9f;stroke-width:1.8;stroke-linecap:round;stroke-linejoin:miter;stroke-miterlimit:4;stroke-dasharray:none;stroke-opacity:1"
     d="m 2.0544261,26.007403 4.4314019,0.08689"
     id="path837-1-9-0-0"
     inkscape:connector-curvature="0"
     inkscape:export-filename="C:\Users\Yves Muyters\Dienstenbedrijf Easylife BVBA\Team site - TASKBOOKER\02. Ontwerpen, designs, visuals\Icoontjes\Coin.png"
     inkscape:export-xdpi="100.91785"
     inkscape:export-ydpi="100.91785" /><path
     style="fill:none;stroke:#7e8a9f;stroke-width:1.8;stroke-linecap:round;stroke-linejoin:miter;stroke-miterlimit:4;stroke-dasharray:none;stroke-opacity:1"
     d="m 1.9008245,30.922657 4.4314018,0.08689"
     id="path837-1-9-0-0-4"
     inkscape:connector-curvature="0"
     inkscape:export-filename="C:\Users\Yves Muyters\Dienstenbedrijf Easylife BVBA\Team site - TASKBOOKER\02. Ontwerpen, designs, visuals\Icoontjes\Coin.png"
     inkscape:export-xdpi="100.91785"
     inkscape:export-ydpi="100.91785" /><path
     style="fill:none;stroke:#7e8a9f;stroke-width:1.8;stroke-linecap:round;stroke-linejoin:miter;stroke-miterlimit:4;stroke-dasharray:none;stroke-opacity:1"
     d="m 2.6381127,35.960793 4.4314017,0.08689"
     id="path837-1-9-0-0-4-1"
     inkscape:connector-curvature="0"
     inkscape:export-filename="C:\Users\Yves Muyters\Dienstenbedrijf Easylife BVBA\Team site - TASKBOOKER\02. Ontwerpen, designs, visuals\Icoontjes\Coin.png"
     inkscape:export-xdpi="100.91785"
     inkscape:export-ydpi="100.91785" /><path
     style="fill:none;stroke:#7e8a9f;stroke-width:1.8;stroke-linecap:round;stroke-linejoin:miter;stroke-miterlimit:4;stroke-dasharray:none;stroke-opacity:1"
     d="m 4.3584518,40.968208 4.431402,0.08689"
     id="path837-1-9-0-0-4-1-6"
     inkscape:connector-curvature="0"
     inkscape:export-filename="C:\Users\Yves Muyters\Dienstenbedrijf Easylife BVBA\Team site - TASKBOOKER\02. Ontwerpen, designs, visuals\Icoontjes\Coin.png"
     inkscape:export-xdpi="100.91785"
     inkscape:export-ydpi="100.91785" /><path
     style="fill:none;stroke:#7e8a9f;stroke-width:1.8;stroke-linecap:round;stroke-linejoin:miter;stroke-miterlimit:4;stroke-dasharray:none;stroke-opacity:1"
     d="m 7.4919263,46.989394 4.4314017,0.08689"
     id="path837-1-9-0-0-4-1-6-2"
     inkscape:connector-curvature="0"
     inkscape:export-filename="C:\Users\Yves Muyters\Dienstenbedrijf Easylife BVBA\Team site - TASKBOOKER\02. Ontwerpen, designs, visuals\Icoontjes\Coin.png"
     inkscape:export-xdpi="100.91785"
     inkscape:export-ydpi="100.91785" /><path
     style="fill:none;stroke:#7e8a9f;stroke-width:1.8;stroke-linecap:round;stroke-linejoin:miter;stroke-miterlimit:4;stroke-dasharray:none;stroke-opacity:1"
     d="m 12.007816,51.966089 4.431401,0.08689"
     id="path837-1-9-0-0-4-1-6-2-5"
     inkscape:connector-curvature="0"
     inkscape:export-filename="C:\Users\Yves Muyters\Dienstenbedrijf Easylife BVBA\Team site - TASKBOOKER\02. Ontwerpen, designs, visuals\Icoontjes\Coin.png"
     inkscape:export-xdpi="100.91785"
     inkscape:export-ydpi="100.91785" /></g><g
   inkscape:groupmode="layer"
   id="layer3"
   inkscape:label="Binnencirkel"><path
     style="opacity:1;fill:none;fill-opacity:1;stroke:#7e8a9f;stroke-width:1.53185403;stroke-linecap:round;stroke-linejoin:round;stroke-miterlimit:4;stroke-dasharray:4.59556204, 4.59556204;stroke-dashoffset:1.26129997;stroke-opacity:1"
     id="path871"
     sodipodi:type="arc"
     sodipodi:cx="32.496937"
     sodipodi:cy="29.443613"
     sodipodi:rx="16.048819"
     sodipodi:ry="19.064255"
     sodipodi:start="6.2374228"
     sodipodi:end="6.2291325"
     sodipodi:open="true"
     d="M 48.528954,28.571489 A 16.048819,19.064255 0 0 1 33.264341,48.486061 16.048819,19.064255 0 0 1 16.468101,30.39467 16.048819,19.064255 0 0 1 31.663091,10.405108 16.048819,19.064255 0 0 1 48.522316,28.413638"
     inkscape:export-filename="C:\Users\Yves Muyters\Dienstenbedrijf Easylife BVBA\Team site - TASKBOOKER\02. Ontwerpen, designs, visuals\Icoontjes\Coin.png"
     inkscape:export-xdpi="100.91785"
     inkscape:export-ydpi="100.91785" /></g></svg>