<svg width="18" height="18" viewBox="0 0 18 18" fill="none" 
  xmlns="http://www.w3.org/2000/svg">
  <path fill-rule="evenodd" clip-rule="evenodd" d="M15.8604 0H2.1396C0.957859 0 0 0.955405 0 2.13469V15.8653C0 17.0441 0.957859 18 2.1396 18H15.8604C17.0421 18 18 17.0441 18 15.8653V2.13469C18 0.955405 17.0421 0 15.8604 0ZM12.9377 2.81221C12.9377 2.50192 13.1896 2.25006 13.4999 2.25006H15.1873C15.4981 2.25006 15.7499 2.50192 15.7499 2.81221V4.49963C15.7499 4.81041 15.4981 5.06227 15.1873 5.06227H13.4999C13.1896 5.06227 12.9377 4.81041 12.9377 4.49963V2.81221ZM9.02087 5.56747C10.9327 5.56747 12.4826 7.11398 12.4826 9.02087C12.4826 10.9282 10.9327 12.4743 9.02087 12.4743C7.10957 12.4743 5.55961 10.9282 5.55961 9.02087C5.55961 7.11398 7.10957 5.56747 9.02087 5.56747ZM16.3126 15.7499C16.3126 16.0602 16.0607 16.3126 15.7499 16.3126H2.25006C1.93928 16.3126 1.68742 16.0602 1.68742 15.7499V7.31233H3.93748C3.64438 7.73406 3.54521 8.52107 3.54521 9.02087C3.54521 12.0329 6.00196 14.4838 9.02087 14.4838C12.0403 14.4838 14.497 12.0329 14.497 9.02087C14.497 8.52107 14.4258 7.74585 14.0625 7.31233H16.3126V15.7499Z" fill="#342C32"/>
</svg>
