<svg width="19" height="19" viewBox="0 0 19 19" fill="none" xmlns="http://www.w3.org/2000/svg">
<path fill-rule="evenodd" clip-rule="evenodd" d="M16.7415 0H2.25846C1.01107 0 0 1.00848 0 2.25328V16.7467C0 17.991 1.01107 19 2.25846 19H16.7415C17.9889 19 19 17.991 19 16.7467V2.25328C19 1.00848 17.9889 0 16.7415 0ZM13.6565 2.96844C13.6565 2.64092 13.9223 2.37506 14.2499 2.37506H16.031C16.3591 2.37506 16.6249 2.64092 16.6249 2.96844V4.74961C16.6249 5.07765 16.3591 5.34351 16.031 5.34351H14.2499C13.9223 5.34351 13.6565 5.07765 13.6565 4.74961V2.96844ZM9.52203 5.87677C11.54 5.87677 13.1761 7.50921 13.1761 9.52203C13.1761 11.5354 11.54 13.1673 9.52203 13.1673C7.50454 13.1673 5.86848 11.5354 5.86848 9.52203C5.86848 7.50921 7.50454 5.87677 9.52203 5.87677ZM17.2188 16.6249C17.2188 16.9525 16.953 17.2188 16.6249 17.2188H2.37506C2.04702 17.2188 1.78117 16.9525 1.78117 16.6249V7.71857H4.15623C3.84685 8.16373 3.74217 8.99446 3.74217 9.52203C3.74217 12.7014 6.33541 15.2884 9.52203 15.2884C12.7092 15.2884 15.3024 12.7014 15.3024 9.52203C15.3024 8.99446 15.2273 8.17617 14.8438 7.71857H17.2188V16.6249Z" fill="#78869C"/>
</svg>
