<svg width="21" height="19" viewBox="0 0 21 19" fill="none" xmlns="http://www.w3.org/2000/svg">
<path id="Linkedin" fill-rule="evenodd" clip-rule="evenodd" d="M0 2.24073C0 0.965977 0.988805 0 2.50019 0C4.01044 0 4.9389 0.963711 4.9685 2.23733C4.9685 3.48828 4.01044 4.47862 2.47173 4.47862H2.44213C0.960911 4.47862 0 3.49168 0 2.24073ZM15.8055 5.96866C13.4607 5.96866 11.9915 7.23265 11.7199 8.11874V6.09274H7.12201C7.18121 7.16862 7.12201 19 7.12201 19H11.7199V12.0155C11.7199 11.9697 11.7197 11.9238 11.7194 11.8782C11.7175 11.5373 11.7157 11.2064 11.8201 10.9606C12.1361 10.1844 12.8152 9.37932 14.0362 9.37932C15.633 9.37932 16.3588 10.5725 16.3588 12.3209V19H21V11.8234C21 7.82526 18.7144 5.96866 15.8055 5.96866ZM0.529412 6.09274H4.62239V19H0.529412V6.09274Z" fill="#78869C"/>
</svg>
