<svg width="21" height="20" viewBox="0 0 21 20" fill="none" 
  xmlns="http://www.w3.org/2000/svg">
  <path fill-rule="evenodd" clip-rule="evenodd" d="M0 2.3411C0 1.00925 0.972097 0 2.45794 0C3.94267 0 4.85545 1.00688 4.88455 2.33755C4.88455 3.64454 3.94267 4.67924 2.42996 4.67924H2.40086C0.944674 4.67924 0 3.64809 0 2.3411ZM15.5384 6.23603C13.2333 6.23603 11.7888 7.55664 11.5219 8.48242V6.36566H7.00167C7.05987 7.48975 7.00167 19.8511 7.00167 19.8511H11.5219V12.5537C11.5219 12.5059 11.5216 12.458 11.5214 12.4103C11.5195 12.0541 11.5177 11.7084 11.6204 11.4516C11.931 10.6406 12.5986 9.79948 13.7991 9.79948C15.3689 9.79948 16.0824 11.0461 16.0824 12.8728V19.8511H20.6452V12.3531C20.6452 8.1758 18.3982 6.23603 15.5384 6.23603ZM0.520466 6.36566H4.54429V19.8511H0.520466V6.36566Z" fill="#342C32"/>
</svg>
