<?xml version="1.0" encoding="UTF-8"?>
<svg width="90px" height="92px" viewBox="0 0 90 92" version="1.1" xmlns="http://www.w3.org/2000/svg" xmlns:xlink="http://www.w3.org/1999/xlink">
    <!-- Generator: Sketch 53.1 (72631) - https://sketchapp.com -->
    <title>left-quote</title>
    <desc>Created with Sketch.</desc>
    <g id="Page-1" stroke="none" stroke-width="1" fill="none" fill-rule="evenodd" opacity="0.168829055">
        <g id="1.2-Home-" transform="translate(-116.000000, -3070.000000)" fill="#DEC0AC" fill-rule="nonzero">
            <g id="Group-34" transform="translate(91.000000, 3069.000000)">
                <g id="Group-15">
                    <g id="left-quote" transform="translate(25.000000, 0.000000)">
                        <path d="M37.157,1.003 C28.759,1.376 21.262,4.725 15.477,10.688 C0.141,26.498 0.436,56.3 0.52,59.596 L0.521,90.674 C0.521,91.778 1.417,92.674 2.521,92.674 L33.212,92.674 C34.316,92.674 35.212,91.778 35.212,90.674 L35.212,59.981 C35.212,58.877 34.316,57.981 33.212,57.981 L17.527,57.981 C17.53,55.419 17.84,32.672 27.713,22.526 C30.385,19.779 33.549,18.312 37.387,18.041 C38.435,17.967 39.246,17.096 39.246,16.046 L39.246,3.002 C39.246,2.456 39.023,1.934 38.629,1.557 C38.234,1.179 37.71,0.969 37.157,1.003 Z" id="Path"></path>
                        <path d="M88.553,1.556 C88.158,1.179 87.647,0.969 87.081,1.003 C78.684,1.375 71.186,4.725 65.4,10.688 C50.065,26.498 50.359,56.3 50.443,59.596 L50.444,90.674 C50.444,91.778 51.34,92.674 52.444,92.674 L83.134,92.674 C84.238,92.674 85.134,91.778 85.134,90.674 L85.134,59.981 C85.134,58.877 84.238,57.981 83.134,57.981 L67.452,57.981 C67.455,55.419 67.765,32.672 77.637,22.526 C80.31,19.779 83.474,18.312 87.312,18.041 C88.36,17.967 89.17,17.096 89.17,16.046 L89.17,3.002 C89.17,2.457 88.947,1.935 88.553,1.556 Z" id="Path"></path>
                    </g>
                </g>
            </g>
        </g>
    </g>
</svg>