<?xml version="1.0" encoding="UTF-8"?>
<svg width="16px" height="15px" viewBox="0 0 16 15" version="1.1" xmlns="http://www.w3.org/2000/svg" xmlns:xlink="http://www.w3.org/1999/xlink">
    <!-- Generator: Sketch 53.2 (72643) - https://sketchapp.com -->
    <title>Shape Copy 2</title>
    <desc>Created with Sketch.</desc>
    <defs>
        <path d="M15.2587903,6.77241308 C15.5658038,6.4732076 15.6741799,6.03408138 15.541755,5.62587515 C15.4090177,5.21766892 15.063276,4.92627152 14.6385167,4.86443155 L10.8619063,4.31567995 C10.70106,4.29225572 10.5620762,4.19137537 10.4902419,4.04552051 L8.80182347,0.623396814 C8.61224337,0.238927136 8.22746137,-9.70779013e-13 7.79864182,-9.70779013e-13 C7.37013459,-9.70779013e-13 6.98535259,0.238927136 6.7957725,0.623396814 L5.10704175,4.04552051 C5.03520745,4.19137537 4.89591137,4.29225572 4.73506499,4.31567995 L0.958454636,4.86474387 C0.534007607,4.92627152 0.188265987,5.21766892 0.0555286897,5.62587515 C-0.0768962847,6.03408138 0.0314798147,6.4732076 0.338493376,6.77241308 L3.07100777,9.43590408 C3.18750427,9.54958967 3.24091151,9.71324695 3.21342708,9.87315635 L2.56847997,13.6344629 C2.49602103,14.057036 2.66623709,14.4758612 3.013228,14.7282182 C3.35990659,14.9808876 3.8112134,15.0136815 4.19131056,14.8134824 L7.56877205,13.0376135 C7.71275298,12.9620313 7.88453066,12.9620313 8.02851159,13.0376135 L11.4062854,14.8134824 C11.571192,14.9003082 11.7498408,14.9430965 11.9275526,14.9430965 C12.1583593,14.9430965 12.3882291,14.8709498 12.584368,14.7282182 C12.9313589,14.4758612 13.1015749,14.057036 13.029116,13.6344629 L12.3838566,9.87346868 C12.3563721,9.71324695 12.4097794,9.54990199 12.5262759,9.4362164 L15.2587903,6.77241308 Z" id="path-1"></path>
    </defs>
    <g id="Page-1" stroke="none" stroke-width="1" fill="none" fill-rule="evenodd">
        <g id="7.-Tasker-matches" transform="translate(-379.000000, -1260.000000)">
            <g id="star" transform="translate(326.000000, 1260.000000)">
                <g id="Shape-Copy-2" transform="translate(53.000000, 0.000000)">
                    <mask id="mask-2" fill="white">
                        <use xlink:href="#path-1"></use>
                    </mask>
                    <use id="Mask" fill="#ABB3C1" fill-rule="nonzero" xlink:href="#path-1"></use>
                    <path d="M6.7957725,0.623396814 L5.10704175,4.04552051 C5.03520745,4.19137537 4.89591137,4.29225572 4.73506499,4.31567995 L0.958454636,4.86474387 C0.534007607,4.92627152 0.188265987,5.21766892 0.0555286897,5.62587515 C-0.0768962847,6.03408138 0.0314798147,6.4732076 0.338493376,6.77241308 L3.07100777,9.43590408 C3.18750427,9.54958967 3.24091151,9.71324695 3.21342708,9.87315635 L2.56847997,13.6344629 C2.49602103,14.057036 2.66623709,14.4758612 3.013228,14.7282182 C3.35990659,14.9808876 3.8112134,15.0136815 4.19131056,14.8134824 L7.56877205,13.0376135 C7.60942794,13.0162714 7.6860512,13.0045972 7.79864182,13.002591 L7.79864182,-9.70779013e-13 C7.37013459,-9.70779013e-13 6.98535259,0.238927136 6.7957725,0.623396814 Z" fill="#FFCD00" fill-rule="nonzero" mask="url(#mask-2)"></path>
                </g>
            </g>
        </g>
    </g>
</svg>