<?xml version="1.0" encoding="UTF-8"?>
<svg width="17px" height="15px" viewBox="0 0 17 15" version="1.1" xmlns="http://www.w3.org/2000/svg" xmlns:xlink="http://www.w3.org/1999/xlink">
    <!-- Generator: sketchtool 53.1 (72631) - https://sketchapp.com -->
    <title>44A1C3EA-055A-4292-93D0-42409C95DCC2@2x</title>
    <desc>Created with sketchtool.</desc>
    <g id="Page-1" stroke="none" stroke-width="1" fill="none" fill-rule="evenodd">
        <g id="7.-Tasker-matches" transform="translate(-384.000000, -358.000000)" fill="#FFCD00" fill-rule="nonzero">
            <g id="Group-23" transform="translate(135.000000, 182.000000)">
                <g id="Group-15" transform="translate(0.000000, 123.000000)">
                    <g id="Group-12-Copy" transform="translate(179.000000, 53.000000)">
                        <g id="star">
                            <path d="M85.8470256,6.77241308 C86.1540391,6.4732076 86.2624152,6.03408138 86.1299902,5.62587515 C85.9972529,5.21766892 85.6515113,4.92627152 85.226752,4.86443155 L81.4501416,4.31567995 C81.2892952,4.29225572 81.1503115,4.19137537 81.0784772,4.04552051 L79.3900588,0.623396814 C79.2004787,0.238927136 78.8156967,-1.1031176e-12 78.3868771,-1.1031176e-12 C77.9583699,-1.1031176e-12 77.5735879,0.238927136 77.3840078,0.623396814 L75.695277,4.04552051 C75.6234427,4.19137537 75.4841467,4.29225572 75.3233003,4.31567995 L71.5466899,4.86474387 C71.1222429,4.92627152 70.7765013,5.21766892 70.643764,5.62587515 C70.511339,6.03408138 70.6197151,6.4732076 70.9267287,6.77241308 L73.6592431,9.43590408 C73.7757396,9.54958967 73.8291468,9.71324695 73.8016624,9.87315635 L73.1567153,13.6344629 C73.0842563,14.057036 73.2544724,14.4758612 73.6014633,14.7282182 C73.9481419,14.9808876 74.3994487,15.0136815 74.7795459,14.8134824 L78.1570073,13.0376135 C78.3009883,12.9620313 78.472766,12.9620313 78.6167469,13.0376135 L81.9945207,14.8134824 C82.1594273,14.9003082 82.3380761,14.9430965 82.5157879,14.9430965 C82.7465946,14.9430965 82.9764644,14.8709498 83.1726033,14.7282182 C83.5195942,14.4758612 83.6898102,14.057036 83.6173513,13.6344629 L82.9720919,9.87346868 C82.9446074,9.71324695 82.9980147,9.54990199 83.1145112,9.4362164 L85.8470256,6.77241308 Z" id="Shape-Copy-3"></path>
                        </g>
                    </g>
                </g>
            </g>
        </g>
    </g>
</svg>