<?xml version="1.0" encoding="UTF-8"?>
<svg width="22px" height="17px" viewBox="0 0 22 17" version="1.1" xmlns="http://www.w3.org/2000/svg" xmlns:xlink="http://www.w3.org/1999/xlink">
    <!-- Generator: Sketch 55.2 (78181) - https://sketchapp.com -->
    <title>Path</title>
    <desc>Created with Sketch.</desc>
    <g id="Page-1" stroke="none" stroke-width="1" fill="none" fill-rule="evenodd">
        <g id="twitter-(1)" fill="#78869B" fill-rule="nonzero">
            <path d="M21.46,2 C20.69,2.35 19.86,2.58 19,2.69 C19.88,2.16 20.56,1.32 20.88,0.31 C20.05,0.81 19.13,1.16 18.16,1.36 C17.37,0.5 16.26,0 15,0 C12.65,0 10.73,1.92 10.73,4.29 C10.73,4.63 10.77,4.96 10.84,5.27 C7.28,5.09 4.11,3.38 2,0.79 C1.63,1.42 1.42,2.16 1.42,2.94 C1.42,4.43 2.17,5.75 3.33,6.5 C2.62,6.5 1.96,6.3 1.38,6 C1.38,6 1.38,6 1.38,6.03 C1.38,8.11 2.86,9.85 4.82,10.24 C4.46,10.34 4.08,10.39 3.69,10.39 C3.42,10.39 3.15,10.36 2.89,10.31 C3.43,12 5,13.26 6.89,13.29 C5.43,14.45 3.58,15.13 1.56,15.13 C1.22,15.13 0.88,15.11 0.54,15.07 C2.44,16.29 4.7,17 7.12,17 C15,17 19.33,10.46 19.33,4.79 C19.33,4.6 19.33,4.42 19.32,4.23 C20.16,3.63 20.88,2.87 21.46,2 Z" id="Path"></path>
        </g>
    </g>
</svg>