<?xml version="1.0" encoding="UTF-8"?>
<svg width="350px" height="402px" viewBox="0 0 350 402" version="1.1" xmlns="http://www.w3.org/2000/svg" xmlns:xlink="http://www.w3.org/1999/xlink">
    <!-- Generator: Sketch 54.1 (76490) - https://sketchapp.com -->
    <title>4 Taskbooker img@2x</title>
    <desc>Created with Sketch.</desc>
    <defs>
        <linearGradient x1="-0.0022392246%" y1="49.9996731%" x2="99.9987808%" y2="49.9996731%" id="linearGradient-1">
            <stop stop-color="#F9E8DB" offset="0%"></stop>
            <stop stop-color="#F9B8AA" offset="100%"></stop>
        </linearGradient>
        <linearGradient x1="50%" y1="0%" x2="50%" y2="100%" id="linearGradient-2">
            <stop stop-color="#2EC3B0" offset="0%"></stop>
            <stop stop-color="#196E63" offset="100%"></stop>
        </linearGradient>
        <linearGradient x1="-0.00158305095%" y1="50.006088%" x2="100.001472%" y2="50.006088%" id="linearGradient-3">
            <stop stop-color="#FDDDDB" offset="0%"></stop>
            <stop stop-color="#FDBCB8" offset="100%"></stop>
        </linearGradient>
        <linearGradient x1="52.102527%" y1="97.6925831%" x2="47.1923504%" y2="-12.4189207%" id="linearGradient-4">
            <stop stop-color="#008CA7" offset="0%"></stop>
            <stop stop-color="#002856" offset="100%"></stop>
        </linearGradient>
        <linearGradient x1="52.6602176%" y1="66.0201831%" x2="46.4476276%" y2="29.0331646%" id="linearGradient-5">
            <stop stop-color="#008CA7" offset="0%"></stop>
            <stop stop-color="#002856" offset="100%"></stop>
        </linearGradient>
        <linearGradient x1="-0.00158305095%" y1="50.006088%" x2="100.001472%" y2="50.006088%" id="linearGradient-6">
            <stop stop-color="#FDDDDB" offset="0%"></stop>
            <stop stop-color="#FDBCB8" offset="100%"></stop>
        </linearGradient>
        <linearGradient x1="50%" y1="0%" x2="50%" y2="100%" id="linearGradient-7">
            <stop stop-color="#E87613" offset="0%"></stop>
            <stop stop-color="#FF9B21" offset="100%"></stop>
        </linearGradient>
    </defs>
    <g id="Page-1" stroke="none" stroke-width="1" fill="none" fill-rule="evenodd">
        <g id="1.2-Home-" transform="translate(-111.000000, -1563.000000)">
            <g id="Group-11" transform="translate(0.000000, 1334.000000)">
                <g id="Fill-1-+-Fill-4-Mask" transform="translate(1.000000, 158.000000)">
                    <g id="Group-40" transform="translate(0.000000, 71.000000)">
                        <g id="4-Taskbooker-img" transform="translate(110.000000, 0.000000)">
                            <g id="Group-7" transform="translate(69.000000, 66.000000)">
                                <g id="Head/Front/Chongo" transform="translate(109.728374, 60.516129) rotate(-17.000000) translate(-109.728374, -60.516129) translate(50.574394, 15.354839)">
                                    <g id="Head" stroke-width="1" transform="translate(46.852941, 26.826923)"></g>
                                    <path d="M71.7227384,24.550941 C68.8773405,23.6855564 64.7468225,23.3920768 63.0092364,23.5906133 C63.9976546,21.2286149 64.3898735,18.5970646 64.0701204,16.0347858 C63.7593343,13.5450572 62.6439182,11.4251255 61.6123261,9.20369322 C61.1368147,8.17975833 60.5979372,7.16140422 59.7945029,6.37821052 C58.9760573,5.5802975 57.9400149,5.05361073 56.8536251,4.8023358 C55.7418622,4.54513128 54.5793533,4.56654755 53.4658635,4.79996396 C52.9732818,4.90320852 52.5313132,5.1278352 52.0482297,5.25270531 C51.5535225,5.38064485 51.3135416,5.07181805 50.9544671,4.76145653 C50.0891279,4.01363108 48.820544,3.64446202 47.725785,3.51233689 C46.4975189,3.36416699 45.2230234,3.5489608 44.051614,3.95168434 C42.9114227,4.34373463 41.816066,4.9803629 40.9917089,5.90781994 C40.6246638,6.32065866 40.2914936,6.79056092 40.0749595,7.30936483 C39.986154,7.52227186 39.9714749,7.64839764 39.7584612,7.72638914 C39.561455,7.79859057 39.3310389,7.80068337 39.1277227,7.86939681 C37.1617795,8.53351046 35.4809174,10.0485546 34.5656957,11.9938077 C34.0317333,13.1286607 33.7788003,15.1267358 33.8480779,17.3662497 C33.9173555,19.6057636 35.944805,25.4492944 37.8410721,27.5807365 C39.5336908,29.4832267 42.0216405,30.7386945 44.4227108,31.2882625 C42.8289937,33.1051575 41.7681097,35.3755612 40.9836055,37.6846118 C40.1314842,40.1928267 39.6040976,42.7989845 39.4093498,45.4543927 C39.224366,47.977327 39.2072292,50.6453617 39.8002403,53.1144414 C40.3549925,55.4234223 41.5413467,57.3176111 43.5218362,58.5192941 C44.4290209,59.069769 45.4050846,59.4833053 46.3867942,59.8612641 C47.3542896,60.2337119 48.3247076,60.5958352 49.3381666,60.8048357 C49.7787521,60.8956605 55.4016851,63.0387139 56.8536251,61.4363158 C61.7225885,56.0628033 66.1409428,40.7047469 68.4255766,39.5587796 C71.7068645,37.9129357 75.4720994,37.7203288 78.844119,36.3081804 C79.7228089,35.9401973 80.9190092,36.0076229 81.0269441,35.5931797 C81.168754,35.0487739 80.3762445,31.7126814 80.104315,31.2882625 C78.6624373,29.0378799 74.5681362,25.4163257 71.7227384,24.550941 Z" id="hair" fill="#2C1E56"></path>
                                    <path d="M61.8101994,50.5173373 C61.9065458,44.2712384 56.5314887,45.8800649 55.2289508,47.2429969 C53.9264129,48.605929 53.6736091,50.8578404 54.5806838,52.5183115 C55.031802,52.8269546 55.0713447,53.489665 56.3780962,54.5596728 L37.5443177,83.7863513 C37.5581569,91.8847575 54.6991725,91.1086954 60.0650373,91.7821974 C61.6979523,89.1616032 61.1627441,76.6535355 63.5247225,74.6839685 C65.8845642,72.7144 69.0932102,71.5212923 72.0510253,72.3293863 C75.2460641,73.202474 78.3121964,76.2735215 81.3326937,74.9073869 C83.6845801,73.8433987 84.212482,70.7574041 84.3731745,68.1531405 C84.5338685,65.5510381 84.9207563,62.4844034 87.1934706,61.2496207 C88.6673186,60.4509 91.0154611,60.1973974 91.0506803,58.5051212 C91.0754868,57.2278082 89.634861,56.5482202 88.6663722,55.732778 C86.6673958,54.0521433 86.3769532,51.0239704 86.9009177,48.4523631 C87.4227454,45.8807544 87.2996653,44.9102473 87.656942,42.3082731 C88.0120833,39.7084588 87.2942771,36.6648781 85.0135226,35.4055135 C83.4946377,34.9985295 82.6650885,34.0817312 80.0667774,34.0800371 C75.1522087,34.0768328 69.4068532,34.8463697 67.1188089,42.0506575 C65.5216541,47.0768037 61.8101994,50.5173373 61.8101994,50.5173373 Z" id="Fill-84" fill="url(#linearGradient-1)" transform="translate(64.297657, 62.931112) rotate(-15.000000) translate(-64.297657, -62.931112) "></path>
                                </g>
                                <g id="Bottom/Sitting/Sweat-Pants" transform="translate(0.000000, 183.000000)">
                                    <g id="Seat" stroke-width="1" transform="translate(42.630000, 23.610879)" fill="url(#linearGradient-2)">
                                        <ellipse id="Ballsy-Ball" cx="66.99" cy="64.2740586" rx="66.99" ry="64.2740586"></ellipse>
                                    </g>
                                    <path d="M236.21305,142.242295 C225.065928,117.443611 217.004441,95.8499195 213.76859,84.4570368 C208.228027,64.9496557 204.013101,47.7842995 202.947795,41.3739344 C200.407436,26.0875966 222.489689,25.1974426 225.408499,32.7944862 C229.826235,44.2929133 237.5386,82.0719463 246.805596,139.135769 L236.21305,142.242295 Z M106.912861,64.4170718 C117.140335,60.3536268 152.956401,47.6370291 170.23049,44.0397363 C175.194371,43.0060186 180.005509,42.0455783 184.528823,41.1776073 C197.973713,38.5976902 204.939427,62.9775837 191.990358,64.8508248 C159.742059,69.5159355 114.02465,74.3334204 110.112239,74.8740525 C104.628828,75.6317713 100.485213,66.9708203 106.912861,64.4170718 Z" id="Skin" fill="url(#linearGradient-3)"></path>
                                    <path d="M192.780795,34.4686101 L137.46,6.16219222 L137.46,0 L144.039102,0 C197.559492,13.7080583 224.908368,22.4930082 226.08573,26.3548495 C226.098397,26.3963984 226.110011,26.4380017 226.120572,26.4796595 C226.147506,26.5151936 226.173984,26.5509425 226.2,26.586906 C236.80661,41.249102 243.158867,112.831112 245.243792,118.19093 L224.919125,121.238694 C217.144401,92.2602038 192.27,72.0727324 192.930754,37.3655364 C192.752336,36.3474398 192.707254,35.3819482 192.780795,34.4686101 Z" id="Leg-Back" fill="url(#linearGradient-4)"></path>
                                    <path d="M142.056361,51.2797469 C136.994637,50.2612859 132.333332,49.352325 128.344753,48.6491304 C102.581082,44.1069431 95.0681763,30.2448801 99.5102073,3.55086631e-14 L146.979333,-4.97379915e-14 C154.733496,2.23893924 195.031412,19.2252346 215.939761,28.259893 C229.777978,34.2394929 225.415722,55.7955497 217.579133,61.405321 C217.536578,61.7494696 217.395545,61.9832398 217.144401,62.0878661 C174.989074,79.6496837 141.640342,70.4350428 130.5,73.3792593 L125.347094,57.0407491 L142.056361,51.2797469 Z" id="Leg-Front" fill="url(#linearGradient-5)"></path>
                                    <g id="Accessories/Shoe/Flat-Sneaker" transform="translate(125.244586, 81.616529) rotate(64.000000) translate(-125.244586, -81.616529) translate(98.709586, 64.126989)" fill="#E4E4E4">
                                        <path d="M2.22608127,22.500135 C1.32126206,24.9766672 0.868852459,26.8407762 0.868852459,28.092462 C0.868852459,29.6703374 1.12986808,31.9728501 1.65189932,35 C3.46948528,35 19.8044364,35 50.6567525,35 C51.930215,30.7601938 51.1950986,28.4712589 48.4514035,28.1331953 C45.7077083,27.7951316 43.4284742,27.4898872 41.613701,27.217462 L18.9636454,17.0485096 C18.459809,16.8223076 17.867996,17.0473748 17.641794,17.5512111 C17.6372271,17.5613833 17.6328307,17.5716311 17.6286065,17.5819503 L16.2155786,21.0338582 C13.6756345,22.2273206 11.6116662,22.8240519 10.0236738,22.8240519 C8.78110545,22.8240519 7.08258832,22.3373279 4.92812241,21.36388 L4.92812055,21.3638841 C3.92153187,20.9090792 2.73683829,21.3563883 2.28203338,22.362977 C2.26169537,22.4079897 2.24303187,22.4537404 2.22608127,22.500135 Z" id="shoe"></path>
                                    </g>
                                    <g id="Accessories/Shoe/Flat-Sneaker" transform="translate(228.810000, 115.430962)" fill="#E4E4E4">
                                        <path d="M2.22608127,22.500135 C1.32126206,24.9766672 0.868852459,26.8407762 0.868852459,28.092462 C0.868852459,29.6703374 1.12986808,31.9728501 1.65189932,35 C3.46948528,35 19.8044364,35 50.6567525,35 C51.930215,30.7601938 51.1950986,28.4712589 48.4514035,28.1331953 C45.7077083,27.7951316 43.4284742,27.4898872 41.613701,27.217462 L18.9636454,17.0485096 C18.459809,16.8223076 17.867996,17.0473748 17.641794,17.5512111 C17.6372271,17.5613833 17.6328307,17.5716311 17.6286065,17.5819503 L16.2155786,21.0338582 C13.6756345,22.2273206 11.6116662,22.8240519 10.0236738,22.8240519 C8.78110545,22.8240519 7.08258832,22.3373279 4.92812241,21.36388 L4.92812055,21.3638841 C3.92153187,20.9090792 2.73683829,21.3563883 2.28203338,22.362977 C2.26169537,22.4079897 2.24303187,22.4537404 2.22608127,22.500135 Z" id="shoe"></path>
                                    </g>
                                </g>
                                <g id="Body/Hoodie" transform="translate(17.000000, 91.000000)">
                                    <path d="M166.188315,80.3768563 L193.9747,100.794218 C201.510939,102.829084 207.807224,105.360801 212.863553,108.389369 C214.057946,109.478422 215.501482,111.683937 210.548046,111.302769 C205.59461,110.921601 200.367207,110.743588 199.683729,112.434222 C199.000251,114.124856 201.997802,116.146669 200.616196,118.427778 C199.695125,119.948517 195.343615,116.13532 187.561667,106.988188 L160.045858,95.5706892 L166.188315,80.3768563 Z M59.5026092,81.0815097 L77.7061966,81.1531422 C66.4663213,117.460885 60.3984589,136.725546 59.5026092,138.947125 C57.4869475,143.945677 61.7523587,151.558386 63.5764179,155.6494 C57.635518,158.309497 58.2685272,148.458072 50.7742419,151.946937 C43.9338057,155.131412 38.730303,160.901466 30.8271674,156.021832 C29.8555233,155.421909 28.7907597,153.163093 31.3633632,151.397948 C37.7726567,147.000327 47.0088369,139.303698 48.2567903,136.770294 C49.9585977,133.315543 53.707204,114.752615 59.5026092,81.0815097 Z" id="Skin" fill="url(#linearGradient-6)"></path>
                                    <path d="M106.907949,8.34846072 L114.299064,6.40406855 C144.245855,28.0346963 159.726248,73.2687196 195.995548,94.7753379 L188.672933,105.682083 C128.827948,103.526695 109.219986,48.4155292 106.907949,8.34846072 Z" id="Coat-Back" fill="#E87613" transform="translate(151.451748, 56.043076) rotate(5.000000) translate(-151.451748, -56.043076) "></path>
                                    <path d="M78.3984375,99.368984 C108.600787,99.368984 130.817003,99.368984 145.047084,99.368984 C148.092587,99.368984 147.51872,94.9685393 147.078474,92.7480508 C141.997504,67.12093 122.163324,39.4961338 122.163324,3.0165724 L102.938716,0 C87.0374967,25.590483 81.5385792,57.0975489 78.3984375,99.368984 Z" id="Shirt" fill="#DDE3E9"></path>
                                    <path d="M78.9340219,25.1542633 C76.141889,24.3511439 73.9308088,22.4780187 72.3007812,19.5348877 C65.2741532,6.84780937 67.8117974,-0.137366973 75.3210344,-2.43343388 C82.8302714,-4.72950079 89.5269383,-1.82076576e-14 101.49116,-6.21724894e-15 C102.141914,-5.77315973e-15 102.737931,0.0408219416 103.279212,0.122465825 L109.297515,0.466110218 C126.564683,59.0244742 131.326865,98.0937031 123.584061,117.673797 L71.1263849,117.673797 C68.0183234,124.925877 65.0441708,131.027481 62.2039271,135.97861 L47.9101562,135.97861 C46.5649116,92.4542022 56.9062001,55.5127534 78.9340219,25.1542633 Z" id="Coat-Front" fill="url(#linearGradient-7)"></path>
                                    <path d="M82.5493983,87.5995409 C84.199182,101.41217 86.8806326,111.436922 90.59375,117.673797 L71.1263849,117.673797 C74.7518519,109.214448 78.559523,99.1896959 82.5493983,87.5995409 Z" id="Shade" fill-opacity="0.1" fill="#000000"></path>
                                </g>
                            </g>
                            <g id="Group-5" transform="translate(53.000000, 53.000000) scale(-1, 1) translate(-53.000000, -53.000000) ">
                                <g id="Clock">
                                    <circle id="Clock-Frame" fill-opacity="0.2" fill="#2EC3B0" cx="53" cy="53" r="53"></circle>
                                    <circle id="Time" fill-opacity="0.1" fill="#000000" cx="53" cy="11" r="3"></circle>
                                    <circle id="Time" fill-opacity="0.1" fill="#000000" cx="11" cy="53" r="3"></circle>
                                    <circle id="Time" fill-opacity="0.1" fill="#000000" cx="95" cy="53" r="3"></circle>
                                    <circle id="Time" fill-opacity="0.1" fill="#000000" cx="53" cy="95" r="3"></circle>
                                    <polygon id="Hand" fill="#AFB9C5" points="53 17 55 52 51 52"></polygon>
                                    <polygon id="Hand" fill="#AFB9C5" transform="translate(62.213203, 62.213203) rotate(135.000000) translate(-62.213203, -62.213203) " points="62.2132034 50.2132034 64.2132034 74.2132034 60.2132034 74.2132034"></polygon>
                                    <circle id="Time" fill="#C5CFD6" cx="53" cy="53" r="4"></circle>
                                </g>
                            </g>
                        </g>
                    </g>
                </g>
            </g>
        </g>
    </g>
</svg>