<?xml version="1.0" encoding="UTF-8" standalone="no"?>
<!-- Created with Inkscape (http://www.inkscape.org/) -->

<svg
   xmlns:dc="http://purl.org/dc/elements/1.1/"
   xmlns:cc="http://creativecommons.org/ns#"
   xmlns:rdf="http://www.w3.org/1999/02/22-rdf-syntax-ns#"
   xmlns:svg="http://www.w3.org/2000/svg"
   xmlns="http://www.w3.org/2000/svg"
   xmlns:xlink="http://www.w3.org/1999/xlink"
   xmlns:sodipodi="http://sodipodi.sourceforge.net/DTD/sodipodi-0.dtd"
   xmlns:inkscape="http://www.inkscape.org/namespaces/inkscape"
   width="210mm"
   height="297mm"
   viewBox="0 0 210 297"
   version="1.1"
   id="svg1014"
   inkscape:version="0.92.4 (5da689c313, 2019-01-14)"
   sodipodi:docname="Vrouw_smartphone.svg">
  <defs
     id="defs1008">
    <linearGradient
       inkscape:collect="always"
       xlink:href="#linearGradient1266"
       id="linearGradient1260"
       x1="-14.648638"
       y1="-9.4382763"
       x2="-2.7174728"
       y2="8.3955355"
       gradientUnits="userSpaceOnUse" />
    <linearGradient
       inkscape:collect="always"
       id="linearGradient1266">
      <stop
         style="stop-color:#dd274e;stop-opacity:1"
         offset="0"
         id="stop1262" />
      <stop
         style="stop-color:#8800b3;stop-opacity:1"
         offset="1"
         id="stop1264" />
    </linearGradient>
    <linearGradient
       inkscape:collect="always"
       xlink:href="#linearGradient1266"
       id="linearGradient1807"
       gradientUnits="userSpaceOnUse"
       x1="-14.648638"
       y1="-9.4382763"
       x2="-2.7174728"
       y2="8.3955355" />
  </defs>
  <sodipodi:namedview
     id="base"
     pagecolor="#ffffff"
     bordercolor="#666666"
     borderopacity="1.0"
     inkscape:pageopacity="0.0"
     inkscape:pageshadow="2"
     inkscape:zoom="0.35"
     inkscape:cx="-87.142857"
     inkscape:cy="560"
     inkscape:document-units="mm"
     inkscape:current-layer="layer1"
     showgrid="false"
     inkscape:window-width="1920"
     inkscape:window-height="1017"
     inkscape:window-x="-8"
     inkscape:window-y="-8"
     inkscape:window-maximized="1" />
  <metadata
     id="metadata1011">
    <rdf:RDF>
      <cc:Work
         rdf:about="">
        <dc:format>image/svg+xml</dc:format>
        <dc:type
           rdf:resource="http://purl.org/dc/dcmitype/StillImage" />
        <dc:title></dc:title>
      </cc:Work>
    </rdf:RDF>
  </metadata>
  <g
     inkscape:label="Layer 1"
     inkscape:groupmode="layer"
     id="layer1">
    <g
       id="g1623"
       transform="matrix(2.1418152,0,0,2.1418152,-66.816157,-218.65395)"
       inkscape:export-xdpi="96"
       inkscape:export-ydpi="96">
      <g
         transform="matrix(1.1995886,0,0,-1.1995886,99.278541,231.86841)"
         id="g430">
        <path
           inkscape:connector-curvature="0"
           id="path432"
           style="fill:#000000;fill-opacity:0.14901961;fill-rule:nonzero;stroke:none"
           d="m 0,0 c 0,-1.409 -8.507,-2.553 -19,-2.553 -10.494,0 -19,1.144 -19,2.553 0,1.41 8.506,2.553 19,2.553 C -8.507,2.553 0,1.41 0,0" />
      </g>
      <g
         transform="matrix(1.1995886,0,0,-1.1995886,77.044526,126.16583)"
         id="g434">
        <path
           inkscape:connector-curvature="0"
           id="path436"
           style="fill:#c8462d;fill-opacity:1;fill-rule:nonzero;stroke:none"
           d="m 0,0 c 0,-3.553 -2.88,-6.433 -6.434,-6.433 -3.552,0 -6.433,2.88 -6.433,6.433 0,3.553 2.881,6.434 6.433,6.434 C -2.88,6.434 0,3.553 0,0" />
      </g>
      <g
         transform="matrix(1.1995886,0,0,-1.1995886,88.859394,124.88419)"
         id="g438">
        <path
           inkscape:connector-curvature="0"
           id="path440"
           style="fill:#c8462d;fill-opacity:1;fill-rule:nonzero;stroke:none"
           d="m 0,0 c 0,-3.553 -2.88,-6.434 -6.434,-6.434 -3.552,0 -6.433,2.881 -6.433,6.434 0,3.553 2.881,6.434 6.433,6.434 C -2.88,6.434 0,3.553 0,0" />
      </g>
      <g
         transform="matrix(1.1995886,0,0,-1.1995886,79.728364,117.45526)"
         id="g442">
        <path
           inkscape:connector-curvature="0"
           id="path444"
           style="fill:#c8462d;fill-opacity:1;fill-rule:nonzero;stroke:none"
           d="m 0,0 c 0,-2.902 -2.353,-5.255 -5.255,-5.255 -2.902,0 -5.255,2.353 -5.255,5.255 0,2.902 2.353,5.255 5.255,5.255 C -2.353,5.255 0,2.902 0,0" />
      </g>
      <g
         transform="matrix(1.1995886,0,0,-1.1995886,87.731301,195.85845)"
         id="g446">
        <path
           inkscape:connector-curvature="0"
           id="path448"
           style="fill:#fa968c;fill-opacity:1;fill-rule:nonzero;stroke:none"
           d="m 0,0 c -0.462,-3.299 -4.724,-28.996 -5.784,-28.59 -0.919,0.352 -1.653,26.268 -1.192,29.567 0.463,3.298 2.399,5.753 4.325,5.484 C -0.725,6.191 0.462,3.299 0,0" />
      </g>
      <g
         transform="matrix(1.1995886,0,0,-1.1995886,89.147655,167.189)"
         id="g450">
        <path
           inkscape:connector-curvature="0"
           id="path452"
           style="fill:#fa968c;fill-opacity:1;fill-rule:nonzero;stroke:none"
           d="m 0,0 c 0,-5.325 0.13,-23.846 -3.716,-23.846 -3.846,0 -10.213,22.38 -10.213,27.705 0,5.325 5.897,13.5 9.743,13.5 C -0.339,17.359 0,5.324 0,0" />
      </g>
      <g
         transform="matrix(1.1995886,0,0,-1.1995886,79.894147,223.06943)"
         id="g454">
        <path
           inkscape:connector-curvature="0"
           id="path456"
           style="fill:#fa968c;fill-opacity:1;fill-rule:nonzero;stroke:none"
           d="M 0,0 C 0,0 -0.103,-3.087 -0.583,-4.779 -1.063,-6.471 -0.701,-7.183 1.046,-7.296 2.793,-7.409 7.187,-8.074 7.701,-7.568 8.214,-7.062 6.165,-6.249 4.75,-5.639 3.076,-4.917 2.081,-2.75 2.14,-1.317 Z" />
      </g>
      <g
         transform="matrix(1.1995886,0,0,-1.1995886,89.564033,127.8714)"
         id="g458">
        <path
           inkscape:connector-curvature="0"
           id="path460"
           style="fill:#fab9af;fill-opacity:1;fill-rule:nonzero;stroke:none"
           d="M 0,0 C 1.237,-3.092 4.948,-11.768 3.142,-12.49 1.336,-13.213 -5.303,-5.708 -6.54,-2.616 -7.777,0.477 -7.315,3.569 -5.51,4.292 -3.704,5.014 -1.237,3.093 0,0" />
      </g>
      <g
         transform="matrix(1.1995886,0,0,-1.1995886,89.905554,135.02275)"
         id="g462">
        <path
           inkscape:connector-curvature="0"
           id="path464"
           style="fill:#fa968c;fill-opacity:1;fill-rule:nonzero;stroke:none"
           d="m 0,0 -2.081,4.704 0.164,1.907 c 0.209,2.03 -1.384,3.794 -3.425,3.794 h -12.143 c -1.846,0 -3.143,-1.815 -2.546,-3.561 l 5.738,-16.777 1.784,-5.748 8.164,-1.296 1.332,12.943 h 0.121 C -0.801,-4.034 0.671,-1.98 0,0" />
      </g>
      <g
         style="fill:url(#linearGradient1260);fill-opacity:1"
         transform="matrix(1.1995886,0,0,-1.1995886,89.905554,135.02275)"
         id="g466">
        <path
           inkscape:connector-curvature="0"
           id="path468"
           style="fill:url(#linearGradient1807);fill-opacity:1;fill-rule:nonzero;stroke:none"
           d="m 0,0 -2.081,4.704 0.164,1.907 c 0.209,2.03 -1.384,3.794 -3.425,3.794 H -7.31 c 0.173,-1.716 -0.841,-3.577 -3.064,-3.577 -0.011,0 -0.02,0.003 -0.03,0.003 -0.012,0 -0.021,-0.003 -0.033,-0.003 -2.226,0 -3.238,1.861 -3.063,3.577 h -3.985 c -1.846,0 -3.143,-1.815 -2.546,-3.561 l 5.738,-16.777 1.784,-5.748 8.164,-1.296 1.332,12.943 h 0.121 C -0.801,-4.034 0.671,-1.98 0,0" />
      </g>
      <g
         transform="matrix(1.1995886,0,0,-1.1995886,77.455744,195.62189)"
         id="g470">
        <path
           inkscape:connector-curvature="0"
           id="path472"
           style="fill:#fab9af;fill-opacity:1;fill-rule:nonzero;stroke:none"
           d="m 0,0 c -0.462,-3.299 -4.724,-28.996 -5.784,-28.59 -0.919,0.353 -1.653,26.269 -1.192,29.567 0.462,3.298 2.398,5.753 4.325,5.484 C -0.725,6.191 0.462,3.299 0,0" />
      </g>
      <g
         transform="matrix(1.1995886,0,0,-1.1995886,78.871498,166.95232)"
         id="g474">
        <path
           inkscape:connector-curvature="0"
           id="path476"
           style="fill:#fab9af;fill-opacity:1;fill-rule:nonzero;stroke:none"
           d="m 0,0 c 0,-5.324 0.13,-23.846 -3.716,-23.846 -3.846,0 -10.213,22.38 -10.213,27.705 0,5.325 5.897,13.5 9.743,13.5 C -0.339,17.359 0,5.324 0,0" />
      </g>
      <g
         transform="matrix(1.1995886,0,0,-1.1995886,87.516335,191.53345)"
         id="g478">
        <path
           inkscape:connector-curvature="0"
           id="path480"
           style="fill:#373c41;fill-opacity:1;fill-rule:nonzero;stroke:none"
           d="m 0,0 c 1.427,5.647 1.36,16.435 1.36,20.294 0,5.324 0.258,14.205 -2.939,17.359 -1.689,0 -8.391,0.198 -9.813,0.198 -3.846,0 -9.744,-8.176 -9.744,-13.5 0,-3.905 3.423,-16.967 6.765,-23.665 C -14.843,-0.19 0.233,-0.862 0,0" />
      </g>
      <g
         transform="matrix(1.1995886,0,0,-1.1995886,69.618593,222.83288)"
         id="g482">
        <path
           inkscape:connector-curvature="0"
           id="path484"
           style="fill:#fab9af;fill-opacity:1;fill-rule:nonzero;stroke:none"
           d="m 0,0 c 0,0 -0.104,-4.219 -0.584,-5.911 -0.481,-1.693 -4.131,-7.105 -2.054,-7.105 0,0 4.495,3.785 5.454,5.063 1.206,1.608 -0.876,3.126 -0.676,6.636 z" />
      </g>
      <g
         transform="matrix(1.1995886,0,0,-1.1995886,85.591594,229.83355)"
         id="g486">
        <path
           inkscape:connector-curvature="0"
           id="path488"
           style="fill:#aa321e;fill-opacity:1;fill-rule:nonzero;stroke:none"
           d="m 0,0 c -0.092,0.04 -0.174,0.099 -0.262,0.147 -0.575,-0.324 -1.258,-0.531 -2.078,-0.531 -1.317,0 -2.308,0.497 -2.993,1.24 -0.479,-1.689 -0.117,-2.4 1.63,-2.513 1.747,-0.114 6.14,-0.779 6.654,-0.273 C 3.465,-1.423 1.415,-0.609 0,0" />
      </g>
      <g
         transform="matrix(1.1995886,0,0,-1.1995886,72.478172,227.41326)"
         id="g490">
        <path
           inkscape:connector-curvature="0"
           id="path492"
           style="fill:#aa321e;fill-opacity:1;fill-rule:nonzero;stroke:none"
           d="m 0,0 c -0.039,-0.358 -0.129,-0.707 -0.247,-1.044 -0.193,-1.933 -1.519,-3.723 -3.992,-3.766 -1.052,-2.075 -2.142,-4.387 -0.782,-4.387 0,0 4.495,3.784 5.453,5.062 C 1.304,-2.973 0.46,-1.854 0,0" />
      </g>
      <g
         transform="matrix(1.1995886,0,0,-1.1995886,71.145548,130.81531)"
         id="g494">
        <path
           inkscape:connector-curvature="0"
           id="path496"
           style="fill:#fa968c;fill-opacity:1;fill-rule:nonzero;stroke:none"
           d="m 0,0 c -0.73,-3.25 -4.285,-12.466 -6.182,-12.039 -1.898,0.427 -1.421,10.335 -0.69,13.584 0.731,3.25 2.862,5.538 4.76,5.112 C -0.215,6.23 0.731,3.25 0,0" />
      </g>
      <g
         transform="matrix(1.1995886,0,0,-1.1995886,84.876399,103.7496)"
         id="g498">
        <path
           inkscape:connector-curvature="0"
           id="path500"
           style="fill:#c8462d;fill-opacity:1;fill-rule:nonzero;stroke:none"
           d="m 0,0 c -0.929,0.223 -1.8,-0.016 -2.438,-0.533 -1.011,-0.818 -2.214,-1.361 -3.514,-1.361 h -0.687 c -1.006,0 -1.92,-0.585 -2.341,-1.498 l -1.434,-3.107 H -1.5 v 1.104 c 0.256,-0.078 0.523,-0.132 0.806,-0.132 1.771,0 3.158,1.64 2.726,3.484 C 1.799,-1.048 0.995,-0.238 0,0" />
      </g>
      <g
         transform="matrix(1.1995886,0,0,-1.1995886,80.159498,123.75897)"
         id="g502">
        <path
           inkscape:connector-curvature="0"
           id="path504"
           style="fill:#fa968c;fill-opacity:1;fill-rule:nonzero;stroke:none"
           d="M 0,0 -5.417,0.573 -2.597,6.109 0,5.579 Z" />
      </g>
      <g
         transform="matrix(1.1995886,0,0,-1.1995886,87.277377,110.49092)"
         id="g506">
        <path
           inkscape:connector-curvature="0"
           id="path508"
           style="fill:#c8462d;fill-opacity:1;fill-rule:nonzero;stroke:none"
           d="m 0,0 c 0,-1.549 -1.256,-2.805 -2.805,-2.805 -1.549,0 -2.806,1.256 -2.806,2.805 0,1.549 1.257,2.805 2.806,2.805 C -1.256,2.805 0,1.549 0,0" />
      </g>
      <g
         transform="matrix(1.1995886,0,0,-1.1995886,85.528975,115.45266)"
         id="g510">
        <path
           inkscape:connector-curvature="0"
           id="path512"
           style="fill:#c8462d;fill-opacity:1;fill-rule:nonzero;stroke:none"
           d="m 0,0 c 0,-1.549 -1.256,-2.805 -2.805,-2.805 -1.549,0 -2.805,1.256 -2.805,2.805 0,1.549 1.256,2.806 2.805,2.806 C -1.256,2.806 0,1.549 0,0" />
      </g>
      <g
         transform="matrix(1.1995886,0,0,-1.1995886,84.104464,110.95648)"
         id="g514">
        <path
           inkscape:connector-curvature="0"
           id="path516"
           style="fill:#c8462d;fill-opacity:1;fill-rule:nonzero;stroke:none"
           d="m 0,0 c 0,-4.624 -3.858,-5.66 -6.444,-5.66 -2.586,0 -2.399,3.824 -2.399,5.81 0,1.987 2.077,3.043 4.663,3.043 C -1.594,3.193 0,1.987 0,0" />
      </g>
      <g
         transform="matrix(1.1995886,0,0,-1.1995886,83.942161,112.69505)"
         id="g518">
        <path
           inkscape:connector-curvature="0"
           id="path520"
           style="fill:#fab9af;fill-opacity:1;fill-rule:nonzero;stroke:none"
           d="m 0,0 c 0,-2.742 -0.91,-7.115 -2.992,-7.115 -2.082,0 -4.328,3.133 -4.328,5.875 0,2.742 1.212,4.327 3.294,4.327 C -1.944,3.087 0,2.742 0,0" />
      </g>
      <g
         transform="matrix(1.1995886,0,0,-1.1995886,75.247542,112.89418)"
         id="g522">
        <path
           inkscape:connector-curvature="0"
           id="path524"
           style="fill:#ff9669;fill-opacity:1;fill-rule:nonzero;stroke:none"
           d="m 0,0 h 5.273 c 0.556,0 1.525,0.378 1.95,0.673 0,1.964 -0.969,2.944 -4.001,2.58 C 1.443,3.04 0.285,2.076 0,0" />
      </g>
      <g
         transform="matrix(1.1995886,0,0,-1.1995886,81.573452,112.28095)"
         id="g526">
        <path
           inkscape:connector-curvature="0"
           id="path528"
           style="fill:#c8462d;fill-opacity:1;fill-rule:nonzero;stroke:none"
           d="m 0,0 h -6.069 v 1.209 c 0,1.445 1.171,2.615 2.615,2.615 H 2.631 V 2.631 C 2.631,1.178 1.453,0 0,0" />
      </g>
      <g
         transform="matrix(1.1995886,0,0,-1.1995886,76.374434,114.75918)"
         id="g530">
        <path
           inkscape:connector-curvature="0"
           id="path532"
           style="fill:#c8462d;fill-opacity:1;fill-rule:nonzero;stroke:none"
           d="M 0,0 V 0 3.019 H 1.317 V 1.317 C 1.317,0.59 0.728,0 0,0" />
      </g>
      <g
         transform="matrix(1.1995886,0,0,-1.1995886,76.977708,114.05862)"
         id="g534">
        <path
           inkscape:connector-curvature="0"
           id="path536"
           style="fill:#fab9af;fill-opacity:1;fill-rule:nonzero;stroke:none"
           d="m 0,0 c 0,-0.907 -0.286,-1.643 -1.024,-1.643 -0.74,0 -1.05,1.05 -1.05,1.957 0,0.908 0.31,1.33 1.05,1.33 C -0.286,1.644 0,0.908 0,0" />
      </g>
      <g
         transform="matrix(1.1995886,0,0,-1.1995886,93.547626,137.28721)"
         id="g538">
        <path
           inkscape:connector-curvature="0"
           id="path540"
           style="fill:#fa968c;fill-opacity:1;fill-rule:nonzero;stroke:none"
           d="M 0,0 C 1.65,1.418 12.513,9.792 13.295,8.881 14.079,7.97 4.486,-1.88 2.836,-3.299 1.186,-4.717 -0.787,-5.129 -1.57,-4.218 -2.353,-3.307 -1.65,-1.418 0,0" />
      </g>
      <g
         transform="matrix(1.1995886,0,0,-1.1995886,110.87196,126.39303)"
         id="g542">
        <path
           inkscape:connector-curvature="0"
           id="path544"
           style="fill:#fa968c;fill-opacity:1;fill-rule:nonzero;stroke:none"
           d="m 0,0 c 0,0 -2.117,0.091 -2.359,-0.546 -0.242,-0.638 -0.287,-1.109 0.627,-1.496 0.914,-0.387 2.352,-0.482 3.226,-0.367 0.874,0.116 2.256,0.928 2.347,1.113 C 4.171,-0.624 2.61,-1 1.845,-1.145 1.081,-1.29 0.202,-1.377 0.237,-0.99 0.271,-0.602 1.756,-0.434 1.943,-0.003 2.129,0.428 0,0 0,0" />
      </g>
      <g
         transform="matrix(1.1995886,0,0,-1.1995886,50.450964,124.01436)"
         id="g546">
        <path
           inkscape:connector-curvature="0"
           id="path548"
           style="fill:#fab9af;fill-opacity:1;fill-rule:nonzero;stroke:none"
           d="M 0,0 C 0,0 1.825,-1.077 1.681,-1.743 1.537,-2.409 1.318,-2.83 0.341,-2.657 c -0.977,0.174 -2.236,0.877 -2.905,1.45 -0.67,0.573 -1.388,2.007 -1.363,2.211 0.089,0.744 1.194,-0.421 1.756,-0.959 0.563,-0.538 1.252,-1.09 1.434,-0.746 0.182,0.344 -0.972,1.293 -0.893,1.756 C -1.552,1.519 0,0 0,0" />
      </g>
      <g
         transform="matrix(1.1995886,0,0,-1.1995886,59.661647,142.48611)"
         id="g550">
        <path
           inkscape:connector-curvature="0"
           id="path552"
           style="fill:#fab9af;fill-opacity:1;fill-rule:nonzero;stroke:none"
           d="M 0,0 C -1.187,1.824 -8.041,13.703 -7.034,14.358 -6.027,15.013 2.46,4.196 3.646,2.372 4.833,0.547 4.979,-1.462 3.972,-2.117 2.964,-2.772 1.187,-1.824 0,0" />
      </g>
      <g
         style="stroke:#c8e6eb;stroke-width:0.1;stroke-miterlimit:4;stroke-dasharray:none;stroke-opacity:1"
         transform="rotate(40.827288,104.54443,119.98448)"
         id="g1487">
        <g
           style="stroke:#c8e6eb;stroke-width:0.10350058;stroke-miterlimit:4;stroke-dasharray:none;stroke-opacity:1"
           id="g622"
           transform="matrix(0.81713117,0,0,-1.1424117,116.25249,114.13859)">
          <path
             d="M 0,0 0.197,0.04 C 0.248,0.05 0.281,0.1 0.271,0.151 L 0.051,1.252 C 0.04,1.303 -0.01,1.336 -0.062,1.326 L -0.258,1.287 C -0.31,1.276 -0.343,1.227 -0.332,1.175 L -0.111,0.074 C -0.102,0.023 -0.052,-0.01 0,0"
             style="fill:#c8e6eb;fill-opacity:1;fill-rule:nonzero;stroke:#c8e6eb;stroke-width:0.10350058;stroke-miterlimit:4;stroke-dasharray:none;stroke-opacity:1"
             id="path624"
             inkscape:connector-curvature="0" />
        </g>
        <g
           style="stroke:#c8e6eb;stroke-width:0.10350058;stroke-miterlimit:4;stroke-dasharray:none;stroke-opacity:1"
           id="g626"
           transform="matrix(0.81713117,0,0,-1.1424117,114.27666,122.34132)">
          <path
             d="M 0,0 C -0.25,-0.196 -0.619,-0.057 -0.676,0.256 L -1.89,6.893 c -0.028,0.152 0.031,0.308 0.152,0.405 L 1.407,9.814 C 1.654,10.011 2.022,9.877 2.085,9.567 L 3.408,2.976 C 3.439,2.82 3.381,2.659 3.256,2.561 Z"
             style="fill:#c8e6eb;fill-opacity:1;fill-rule:nonzero;stroke:#c8e6eb;stroke-width:0.10350058;stroke-miterlimit:4;stroke-dasharray:none;stroke-opacity:1"
             id="path628"
             inkscape:connector-curvature="0" />
        </g>
        <path
           inkscape:connector-curvature="0"
           id="path632"
           style="fill:#ffffff;fill-opacity:1;fill-rule:nonzero;stroke:#c8e6eb;stroke-width:0.1;stroke-miterlimit:4;stroke-dasharray:none;stroke-opacity:1"
           d="m 113.28719,114.36453 c -0.0221,-0.17365 0.0245,-0.35186 0.1242,-0.46268 l 2.33455,-2.61041 c 0.04,-0.0446 0.0931,-0.056 0.14136,-0.032 0.0474,0.024 0.0825,0.0823 0.0932,0.15195 l 1.08107,7.53077 c 0.0253,0.17822 -0.0221,0.36101 -0.12421,0.47296 l -2.54291,2.79663 c -0.0547,-0.0674 -0.1005,-0.15194 -0.11521,-0.26504 z" />
        <g
           style="stroke:#c8e6eb;stroke-width:0.10350058;stroke-miterlimit:4;stroke-dasharray:none;stroke-opacity:1"
           id="g638"
           transform="matrix(0.81713117,0,0,-1.1424117,114.54638,115.47065)">
          <path
             d="m 0,0 c 0.118,-0.523 0.503,-0.882 0.858,-0.802 0.356,0.081 0.547,0.57 0.429,1.094 C 1.169,0.815 0.784,1.174 0.429,1.093 0.073,1.013 -0.118,0.523 0,0"
             style="fill:#c8e6eb;fill-opacity:1;fill-rule:nonzero;stroke:#c8e6eb;stroke-width:0.10350058;stroke-miterlimit:4;stroke-dasharray:none;stroke-opacity:1"
             id="path640"
             inkscape:connector-curvature="0" />
        </g>
      </g>
    </g>
  </g>
</svg>
