<?xml version="1.0" encoding="UTF-8" standalone="no"?>
<!-- Created with Inkscape (http://www.inkscape.org/) -->

<svg
   xmlns:dc="http://purl.org/dc/elements/1.1/"
   xmlns:cc="http://creativecommons.org/ns#"
   xmlns:rdf="http://www.w3.org/1999/02/22-rdf-syntax-ns#"
   xmlns:svg="http://www.w3.org/2000/svg"
   xmlns="http://www.w3.org/2000/svg"
   xmlns:xlink="http://www.w3.org/1999/xlink"
   xmlns:sodipodi="http://sodipodi.sourceforge.net/DTD/sodipodi-0.dtd"
   xmlns:inkscape="http://www.inkscape.org/namespaces/inkscape"
   width="210mm"
   height="297mm"
   viewBox="0 0 210 297"
   version="1.1"
   id="svg1014"
   inkscape:version="0.92.4 (5da689c313, 2019-01-14)"
   sodipodi:docname="Man - tablet.svg">
  <defs
     id="defs1008">
    <clipPath
       clipPathUnits="userSpaceOnUse"
       id="clipPath428">
      <path
         d="M 0,500 H 500 V 0 H 0 Z"
         id="path426"
         inkscape:connector-curvature="0" />
    </clipPath>
    <linearGradient
       inkscape:collect="always"
       xlink:href="#linearGradient851"
       id="linearGradient1284"
       x1="430.29828"
       y1="293.73981"
       x2="448.14615"
       y2="322.56769"
       gradientUnits="userSpaceOnUse" />
    <linearGradient
       inkscape:collect="always"
       id="linearGradient851">
      <stop
         style="stop-color:#0067b4;stop-opacity:1"
         offset="0"
         id="stop847" />
      <stop
         style="stop-color:#5ce1b3;stop-opacity:1"
         offset="1"
         id="stop849" />
    </linearGradient>
    <linearGradient
       inkscape:collect="always"
       xlink:href="#linearGradient851"
       id="linearGradient1456"
       gradientUnits="userSpaceOnUse"
       x1="-7.9061308"
       y1="-10.163659"
       x2="16.128664"
       y2="-58.985741" />
    <linearGradient
       inkscape:collect="always"
       xlink:href="#linearGradient851"
       id="linearGradient1438"
       gradientUnits="userSpaceOnUse"
       x1="-6.2231002"
       y1="2.5225"
       x2="0"
       y2="0" />
    <linearGradient
       inkscape:collect="always"
       xlink:href="#linearGradient851"
       id="linearGradient1440"
       gradientUnits="userSpaceOnUse"
       x1="-8.6284227"
       y1="-0.85088587"
       x2="2.3141689"
       y2="8.401536" />
    <linearGradient
       inkscape:collect="always"
       xlink:href="#linearGradient851"
       id="linearGradient1454"
       gradientUnits="userSpaceOnUse"
       x1="7.9507089"
       y1="-0.63879377"
       x2="-2.0715368"
       y2="14.780046" />
    <linearGradient
       inkscape:collect="always"
       xlink:href="#linearGradient851"
       id="linearGradient2111"
       gradientUnits="userSpaceOnUse"
       x1="430.29828"
       y1="293.73981"
       x2="448.14615"
       y2="322.56769" />
  </defs>
  <sodipodi:namedview
     id="base"
     pagecolor="#ffffff"
     bordercolor="#666666"
     borderopacity="1.0"
     inkscape:pageopacity="0.0"
     inkscape:pageshadow="2"
     inkscape:zoom="0.35"
     inkscape:cx="-87.142857"
     inkscape:cy="560"
     inkscape:document-units="mm"
     inkscape:current-layer="layer1"
     showgrid="false"
     inkscape:window-width="1920"
     inkscape:window-height="1017"
     inkscape:window-x="-8"
     inkscape:window-y="-8"
     inkscape:window-maximized="1" />
  <metadata
     id="metadata1011">
    <rdf:RDF>
      <cc:Work
         rdf:about="">
        <dc:format>image/svg+xml</dc:format>
        <dc:type
           rdf:resource="http://purl.org/dc/dcmitype/StillImage" />
        <dc:title></dc:title>
      </cc:Work>
    </rdf:RDF>
  </metadata>
  <g
     inkscape:label="Layer 1"
     inkscape:groupmode="layer"
     id="layer1">
    <g
       id="g1766"
       transform="matrix(2.1008193,0,0,2.1008193,-810.69926,-81.429696)">
      <g
         transform="matrix(1.1995886,0,0,-1.1995886,-85.243175,452.95489)"
         id="g422">
        <g
           clip-path="url(#clipPath428)"
           id="g424">
          <g
             transform="translate(365.4971,324.9282)"
             id="g562" />
          <g
             transform="translate(360.0996,314.5786)"
             id="g566" />
          <g
             transform="translate(356.5244,308.1621)"
             id="g578" />
          <g
             transform="translate(368.3437,300.9751)"
             id="g586" />
          <g
             transform="translate(368.3437,300.9751)"
             id="g590" />
          <g
             transform="translate(383.6426,311.0488)"
             id="g598" />
          <g
             transform="translate(376.6143,315.4282)"
             id="g634" />
          <g
             transform="translate(358.6465,313.1235)"
             id="g642" />
          <g
             transform="translate(352.4814,320.4316)"
             id="g662" />
          <g
             transform="translate(413.21206,333.0979)"
             id="g682">
            <path
               inkscape:connector-curvature="0"
               id="path684"
               style="fill:#fab9af;fill-opacity:1;fill-rule:nonzero;stroke:none"
               d="M 0,0 C 2.637,0.958 15.574,6.291 15.05,7.735 14.525,9.179 0.738,6.187 -1.898,5.23 -4.536,4.273 -6.248,2.326 -5.724,0.882 -5.2,-0.562 -2.637,-0.957 0,0" />
          </g>
          <g
             transform="translate(428.49426,328.218)"
             id="g686">
            <path
               inkscape:connector-curvature="0"
               id="path688"
               style="fill:#fab9af;fill-opacity:1;fill-rule:nonzero;stroke:none"
               d="M 0,0 C -3.372,1.86 -19.801,8.358 -21.027,6.135 -22.253,3.913 -7.812,-6.19 -4.44,-8.05 -1.068,-9.91 2.659,-9.615 3.886,-7.392 5.111,-5.169 3.372,-1.859 0,0" />
          </g>
          <g
             style="fill:#000000;fill-opacity:0.14901961"
             transform="translate(417.66716,230.1614)"
             id="g694">
            <path
               inkscape:connector-curvature="0"
               id="path696"
               style="fill:#000000;fill-opacity:0.14901961;fill-rule:nonzero;stroke:none"
               d="m 0,0 c 0,-0.714 8.522,-1.292 19.036,-1.292 10.514,0 19.037,0.578 19.037,1.292 0,0.714 -8.523,1.293 -19.037,1.293 C 8.522,1.293 0,0.714 0,0" />
          </g>
          <g
             transform="translate(426.89366,262.0813)"
             id="g698">
            <path
               inkscape:connector-curvature="0"
               id="path700"
               style="fill:#fab9af;fill-opacity:1;fill-rule:nonzero;stroke:none"
               d="M 0,0 C 0.43,-3.065 4.391,-26.946 5.375,-26.569 6.229,-26.242 6.912,-2.158 6.482,0.907 6.054,3.973 4.254,6.255 2.464,6.004 0.674,5.754 -0.429,3.065 0,0" />
          </g>
          <g
             style="fill:#3f3942;fill-opacity:1;stroke:none;stroke-opacity:1"
             transform="translate(427.54506,287.8352)"
             id="g702">
            <path
               inkscape:connector-curvature="0"
               id="path704"
               style="fill:#3f3942;fill-opacity:1;fill-rule:nonzero;stroke:none;stroke-opacity:1"
               d="m 0,0 c -0.608,-4.43 -1.937,-29.518 1.178,-29.945 3.113,-0.428 9.862,27.218 10.47,31.648 0.609,4.429 -1.422,8.365 -4.537,8.793 C 3.998,10.924 0.608,4.429 0,0" />
          </g>
          <g
             transform="translate(432.92596,240.4036)"
             id="g706">
            <path
               inkscape:connector-curvature="0"
               id="path708"
               style="fill:#fab9af;fill-opacity:1;fill-rule:nonzero;stroke:none"
               d="m 0,0 -0.021,-5.819 1.01,-3.306 C 1.059,-9.353 0.888,-9.583 0.65,-9.583 h -2.303 v 0.736 l -1.118,-0.736 c 0,0 -5.961,-0.328 -6.165,0 -0.766,1.241 2.701,1.719 5.237,2.7 2.537,0.983 0.787,10.613 0.787,10.613 z" />
          </g>
          <g
             transform="translate(439.71596,262.0833)"
             id="g710">
            <path
               inkscape:connector-curvature="0"
               id="path712"
               style="fill:#fab9af;fill-opacity:1;fill-rule:nonzero;stroke:none"
               d="M 0,0 C 0.429,-3.065 4.39,-26.946 5.375,-26.569 6.229,-26.242 6.911,-2.158 6.482,0.907 6.053,3.974 4.253,6.255 2.463,6.004 0.673,5.754 -0.43,3.065 0,0" />
          </g>
          <g
             style="fill:#3f3942;fill-opacity:1;stroke:none;stroke-opacity:1"
             transform="translate(430.33316,238.7063)"
             id="g714">
            <path
               inkscape:connector-curvature="0"
               id="path716"
               style="fill:#3f3942;fill-opacity:1;fill-rule:nonzero;stroke:none;stroke-opacity:1"
               d="M 0,0 H 2.917 C 3.33,7.462 3.326,22.264 3.043,24.282 2.614,27.348 0.814,29.63 -0.976,29.379 -2.766,29.129 -3.868,26.44 -3.439,23.375 -3.164,21.407 -1.465,7.199 0,0" />
          </g>
          <g
             transform="translate(437.28626,290.551)"
             id="g718">
            <path
               inkscape:connector-curvature="0"
               id="path720"
               style="fill:#3f3942;fill-opacity:1;fill-rule:nonzero;stroke:none;stroke-opacity:1"
               d="m 0,0 c -0.101,-4.47 1.429,-32.819 4.571,-32.891 3.143,-0.071 6.707,24.89 6.809,29.36 C 11.481,0.937 9.017,7.892 5.874,7.963 2.731,8.034 0.102,4.469 0,0" />
          </g>
          <g
             transform="translate(445.74816,240.4065)"
             id="g722">
            <path
               inkscape:connector-curvature="0"
               id="path724"
               style="fill:#fab9af;fill-opacity:1;fill-rule:nonzero;stroke:none"
               d="m 0,0 -0.021,-5.82 1.009,-3.306 c 0.07,-0.228 -0.1,-0.458 -0.339,-0.458 h -2.303 v 0.736 l -1.118,-0.736 c 0,0 -5.961,-0.328 -6.165,0 -0.766,1.241 2.701,1.719 5.238,2.7 2.536,0.983 0.786,10.613 0.786,10.613 z" />
          </g>
          <g
             transform="translate(433.04606,234.1223)"
             id="g726">
            <path
               inkscape:connector-curvature="0"
               id="path728"
               style="fill:#415050;fill-opacity:1;fill-rule:nonzero;stroke:none"
               d="m 0,0 c -0.763,-0.447 -1.693,-0.713 -2.796,-0.713 -0.377,0 -0.729,0.037 -1.067,0.096 -2.533,-0.971 -5.955,-1.45 -5.193,-2.685 0.203,-0.328 6.164,0 6.164,0 l 1.119,0.737 V -3.302 H 0.53 c 0.238,0 0.408,0.231 0.339,0.458 z" />
          </g>
          <g
             transform="translate(445.75016,234.5081)"
             id="g730">
            <path
               inkscape:connector-curvature="0"
               id="path732"
               style="fill:#415050;fill-opacity:1;fill-rule:nonzero;stroke:none"
               d="m 0,0 c -0.835,-0.629 -1.918,-1.016 -3.25,-1.016 -0.162,0 -0.316,0.012 -0.472,0.024 -2.534,-0.977 -5.981,-1.455 -5.216,-2.694 0.203,-0.328 6.164,0 6.164,0 l 1.118,0.737 v -0.737 h 2.303 c 0.239,0 0.409,0.231 0.339,0.458 z" />
          </g>
          <g
             transform="translate(444.20916,327.4197)"
             id="g734">
            <path
               inkscape:connector-curvature="0"
               id="path736"
               style="fill:#fa968c;fill-opacity:1;fill-rule:nonzero;stroke:none"
               d="m 0,0 -16.634,1.183 c -3.315,0.235 -5.891,-2.84 -5.078,-6.062 l 7.186,-28.473 c 0.858,-3.398 3.962,-5.746 7.465,-5.646 3.654,0.106 6.697,2.836 7.194,6.457 L 3.937,-4.852 C 4.273,-2.4 2.468,-0.175 0,0" />
          </g>
          <g
             transform="translate(444.20916,327.4197)"
             id="g738" />
          <g
             transform="translate(428.27946,337.491)"
             id="g742">
            <path
               inkscape:connector-curvature="0"
               id="path744"
               style="fill:#69280f;fill-opacity:1;fill-rule:nonzero;stroke:none"
               d="m 0,0 c 1.279,-5.897 6.574,-7.209 9.872,-6.493 3.298,0.716 1.914,6.598 1.364,9.132 C 10.687,5.172 7.745,5.945 4.447,5.229 1.149,4.514 -0.55,2.533 0,0" />
          </g>
          <g
             transform="translate(433.24626,327.782)"
             id="g746">
            <path
               inkscape:connector-curvature="0"
               id="path748"
               style="fill:#fa968c;fill-opacity:1;fill-rule:nonzero;stroke:none"
               d="M 0,0 H 5.87 L 5.161,10.465 1.604,7.498 Z" />
          </g>
          <g
             transform="translate(448.45716,314.2063)"
             id="g750">
            <path
               inkscape:connector-curvature="0"
               id="path752"
               style="fill:#fab9af;fill-opacity:1;fill-rule:nonzero;stroke:none"
               d="M 0,0 C 4.908,-5.171 11.056,-7.315 12.303,-6.122 13.607,-4.874 10.541,0.745 5.912,5.839 1.117,11.115 -3.584,14.396 -5.471,12.605 -7.357,10.815 -4.907,5.171 0,0" />
          </g>
          <g
             style="fill:url(#linearGradient1284);fill-opacity:1"
             id="g1276">
            <g
               style="fill:url(#linearGradient2111);fill-opacity:1"
               id="g690"
               transform="translate(417.08216,324.8298)" />
            <path
               transform="translate(444.20916,327.4197)"
               d="m 0,0 -5.093,0.362 c 0.372,-1.91 -0.609,-4.12 -3.113,-4.284 -2.909,-0.19 -4.141,2.613 -3.479,4.753 l -4.949,0.352 c -3.315,0.235 -5.891,-2.84 -5.078,-6.062 l 7.186,-28.473 c 0.858,-3.398 3.962,-5.746 7.465,-5.646 3.654,0.106 9.858,1.429 10.355,5.05 L 3.937,-4.852 C 4.273,-2.4 2.468,-0.175 0,0"
               style="fill:url(#linearGradient1456);fill-opacity:1;fill-rule:nonzero;stroke:none"
               id="path740"
               inkscape:connector-curvature="0" />
            <g
               style="fill:url(#linearGradient1438);fill-opacity:1;stroke:none;stroke-opacity:0.9906977"
               id="g754"
               transform="translate(454.36926,320.0452)">
              <path
                 d="m 0,0 c -4.795,5.276 -9.496,8.557 -11.383,6.767 -1.789,-1.699 0.326,-6.863 4.737,-11.803 0,0 5.783,2.211 6.646,5.036"
                 style="fill:url(#linearGradient1440);fill-opacity:1;fill-rule:nonzero;stroke:none;stroke-width:0.08336191;stroke-miterlimit:4;stroke-dasharray:none;stroke-opacity:0.9906977"
                 id="path756"
                 inkscape:connector-curvature="0" />
            </g>
          </g>
          <g
             transform="translate(451.46596,309.0803)"
             id="g758">
            <path
               inkscape:connector-curvature="0"
               id="path760"
               style="fill:#fab9af;fill-opacity:1;fill-rule:nonzero;stroke:none"
               d="m 0,0 c -2.775,-0.729 -15.098,-4.89 -14.685,-6.461 0.414,-1.572 13.535,0.477 16.269,1.346 5.022,1.597 8.391,3.573 7.979,5.145 C 9.149,1.602 2.775,0.729 0,0" />
          </g>
          <g
             transform="translate(429.53926,334.0911)"
             id="g762">
            <path
               inkscape:connector-curvature="0"
               id="path764"
               style="fill:#fab9af;fill-opacity:1;fill-rule:nonzero;stroke:none"
               d="M 0,0 C 0.922,-4.244 2.194,-6.154 4.375,-5.681 7.031,-5.104 9.752,-1.464 8.993,2.033 8.233,5.53 6.249,7.217 3.594,6.641 0.938,6.064 -0.759,3.497 0,0" />
          </g>
          <g
             transform="translate(438.14276,337.4744)"
             id="g766">
            <path
               inkscape:connector-curvature="0"
               id="path768"
               style="fill:#ff9669;fill-opacity:1;fill-rule:nonzero;stroke:none"
               d="m 0,0 -6.726,-1.459 c -0.709,-0.154 -1.412,-0.074 -2.035,0.184 0.177,2.395 1.665,4.08 3.751,4.532 C -2.724,3.753 -0.937,2.569 0,0" />
          </g>
          <g
             transform="translate(431.27656,336.6663)"
             id="g770">
            <path
               inkscape:connector-curvature="0"
               id="path772"
               style="fill:#69280f;fill-opacity:1;fill-rule:nonzero;stroke:none"
               d="M 0,0 7.739,1.68 7.404,3.223 C 7.005,5.064 5.187,6.233 3.346,5.833 l -7.76,-1.684 0.33,-1.522 C -3.682,0.774 -1.854,-0.402 0,0" />
          </g>
          <g
             transform="translate(437.37516,335.2312)"
             id="g774">
            <path
               inkscape:connector-curvature="0"
               id="path776"
               style="fill:#69280f;fill-opacity:1;fill-rule:nonzero;stroke:none"
               d="M 0,0 V 0 L -0.835,3.85 -2.516,3.485 -2.045,1.316 C -1.844,0.388 -0.928,-0.201 0,0" />
          </g>
          <g
             transform="translate(436.57246,335.8372)"
             id="g778">
            <path
               inkscape:connector-curvature="0"
               id="path780"
               style="fill:#fab9af;fill-opacity:1;fill-rule:nonzero;stroke:none"
               d="M 0,0 C 0.251,-1.157 0.819,-2.016 1.761,-1.812 2.703,-1.607 2.963,0.116 2.712,1.273 2.461,2.43 1.794,2.584 0.852,2.379 -0.091,2.175 -0.252,1.158 0,0" />
          </g>
          <g
             transform="translate(434.79996,302.1887)"
             id="g782">
            <path
               inkscape:connector-curvature="0"
               id="path784"
               style="fill:#a5c8cd;fill-opacity:1;fill-rule:nonzero;stroke:none"
               d="m 0,0 h -8.585 c -0.577,0 -1.062,0.432 -1.13,1.004 l -1.415,12.038 c -0.079,0.676 0.449,1.27 1.13,1.27 h 8.585 c 0.577,0 1.062,-0.432 1.13,-1.004 L 1.13,1.27 C 1.209,0.594 0.681,0 0,0" />
          </g>
          <g
             transform="translate(434.29996,301.7161)"
             id="g786">
            <path
               inkscape:connector-curvature="0"
               id="path788"
               style="fill:#c8e6eb;fill-opacity:1;fill-rule:nonzero;stroke:none"
               d="m 0,0 h -8.585 c -0.577,0 -1.062,0.431 -1.13,1.004 l -1.415,12.038 c -0.079,0.676 0.449,1.27 1.13,1.27 h 8.585 c 0.577,0 1.062,-0.432 1.13,-1.004 L 1.13,1.269 C 1.209,0.593 0.681,0 0,0" />
          </g>
          <g
             transform="translate(436.77266,305.8347)"
             id="g790">
            <path
               inkscape:connector-curvature="0"
               id="path792"
               style="fill:#fab9af;fill-opacity:1;fill-rule:nonzero;stroke:none"
               d="m 0,0 c 0,0 2.107,-1.744 1.789,-2.564 -0.319,-0.82 -0.685,-1.311 -1.894,-0.892 -1.211,0.42 -2.672,1.573 -3.41,2.44 -0.737,0.866 -1.36,2.841 -1.287,3.096 0.265,0.93 1.437,-0.781 2.044,-1.581 0.608,-0.8 1.373,-1.644 1.676,-1.243 0.302,0.402 -0.977,1.847 -0.782,2.421 C -1.669,2.252 0,0 0,0" />
          </g>
          <g
             style="fill:#3f3942;fill-opacity:1;stroke:none;stroke-opacity:1"
             transform="translate(443.12516,238.7063)"
             id="g794">
            <path
               inkscape:connector-curvature="0"
               id="path796"
               style="fill:#3f3942;fill-opacity:1;fill-rule:nonzero;stroke:none;stroke-opacity:1"
               d="m 0,0 h 2.875 c 0.413,7.462 0.48,22.266 0.198,24.284 -0.429,3.067 -2.229,5.348 -4.019,5.097 -1.79,-0.25 -2.893,-2.939 -2.463,-6.004 C -3.134,21.409 -1.465,7.199 0,0" />
          </g>
        </g>
      </g>
      <path
         d="m 0,0 c 2.938,-2.14 5.719,-3.971 6.972,-4.662 3.372,-1.859 7.099,-1.565 8.326,0.658 1.225,2.223 -0.514,5.533 -3.886,7.392 C 10.114,4.104 6.886,5.504 3.333,6.831 0.245,4.697 0,0 0,0"
         style="fill:url(#linearGradient1454);fill-opacity:1;fill-rule:nonzero;stroke:none"
         id="path692"
         inkscape:connector-curvature="0"
         transform="matrix(1.1995886,0,0,-1.1995886,415.08384,63.292757)" />
    </g>
  </g>
</svg>
