<?xml version="1.0" encoding="UTF-8"?>
<svg width="110px" height="30px" viewBox="0 0 110 30" version="1.1" xmlns="http://www.w3.org/2000/svg" xmlns:xlink="http://www.w3.org/1999/xlink">
    <!-- Generator: sketchtool 53.1 (72631) - https://sketchapp.com -->
    <title>7F42FE57-8B97-4D6B-8DFA-EBEC3EF9BD7C</title>
    <desc>Created with sketchtool.</desc>
    <g id="Page-1" stroke="none" stroke-width="1" fill="none" fill-rule="evenodd">
        <g id="1.2-Home-" transform="translate(-236.000000, -3144.000000)" fill-rule="nonzero">
            <g id="Group-34" transform="translate(91.000000, 3069.000000)">
                <g id="Group-15">
                    <g id="Group-14" transform="translate(25.000000, 75.000000)">
                        <g id="Group-13" transform="translate(120.000000, 0.000000)">
                            <g id="favorite" transform="translate(-0.000000, 6.000000)">
                                <polygon id="Path" fill="#FFCD00" points="25.1076951 9.16726098 16.8134917 7.40328061 12.585956 0 12.585956 20.5143265 20.3246146 24 19.4263507 15.5063137"></polygon>
                                <polygon id="Path" fill="#FFDA44" points="8.35842021 7.40328061 0.0642168456 9.16726098 5.7455613 15.5063137 4.84729738 24 12.585956 20.5143265 12.585956 0"></polygon>
                            </g>
                            <g id="favorite-copy" transform="translate(39.000000, 0.000000)">
                                <polygon id="Path" fill="#FFCD00" points="31.3846189 11.4590762 21.0168647 9.25410077 15.732445 0 15.732445 25.6429081 25.4057682 30 24.2829383 19.3828921"></polygon>
                                <polygon id="Path" fill="#FFDA44" points="10.4480253 9.25410077 0.0802710569 11.4590762 7.18195162 19.3828921 6.05912172 30 15.732445 25.6429081 15.732445 0"></polygon>
                            </g>
                            <g id="favorite-copy-2" transform="translate(84.000000, 6.000000)">
                                <polygon id="Path" fill="#FFCD00" points="25.1076951 9.16726098 16.8134917 7.40328061 12.585956 0 12.585956 20.5143265 20.3246146 24 19.4263507 15.5063137"></polygon>
                                <polygon id="Path" fill="#FFDA44" points="8.35842021 7.40328061 0.0642168456 9.16726098 5.7455613 15.5063137 4.84729738 24 12.585956 20.5143265 12.585956 0"></polygon>
                            </g>
                        </g>
                    </g>
                </g>
            </g>
        </g>
    </g>
</svg>