<?xml version="1.0" encoding="UTF-8" standalone="no"?>
<svg
   xmlns:dc="http://purl.org/dc/elements/1.1/"
   xmlns:cc="http://creativecommons.org/ns#"
   xmlns:rdf="http://www.w3.org/1999/02/22-rdf-syntax-ns#"
   xmlns:svg="http://www.w3.org/2000/svg"
   xmlns="http://www.w3.org/2000/svg"
   xmlns:sodipodi="http://sodipodi.sourceforge.net/DTD/sodipodi-0.dtd"
   xmlns:inkscape="http://www.inkscape.org/namespaces/inkscape"
   width="500"
   height="500"
   viewBox="0 0 500 500"
   version="1.1"
   id="svg48"
   sodipodi:docname="Handen op elkaar.svg"
   inkscape:version="0.92.4 (5da689c313, 2019-01-14)"
   inkscape:export-filename="C:\Users\Yves Muyters\Dienstenbedrijf Easylife BVBA\Team site - TASKBOOKER\02. Ontwerpen, designs, visuals\Illustraties\Mannetjesbibliotheek\PNG\Handen op elkaar_2.png"
   inkscape:export-xdpi="133"
   inkscape:export-ydpi="133">
  <metadata
     id="metadata54">
    <rdf:RDF>
      <cc:Work
         rdf:about="">
        <dc:format>image/svg+xml</dc:format>
        <dc:type
           rdf:resource="http://purl.org/dc/dcmitype/StillImage" />
        <dc:title>19  Taskbooker img@2x</dc:title>
      </cc:Work>
    </rdf:RDF>
  </metadata>
  <defs
     id="defs52" />
  <sodipodi:namedview
     pagecolor="#ffffff"
     bordercolor="#666666"
     borderopacity="1"
     objecttolerance="10"
     gridtolerance="10"
     guidetolerance="10"
     inkscape:pageopacity="0"
     inkscape:pageshadow="2"
     inkscape:window-width="1920"
     inkscape:window-height="1017"
     id="namedview50"
     showgrid="false"
     inkscape:zoom="0.78666665"
     inkscape:cx="-196.40306"
     inkscape:cy="51.407335"
     inkscape:window-x="-8"
     inkscape:window-y="-8"
     inkscape:window-maximized="1"
     inkscape:current-layer="19--Taskbooker-img" />
  <!-- Generator: Sketch 54.1 (76490) - https://sketchapp.com -->
  <title
     id="title2">19  Taskbooker img@2x</title>
  <desc
     id="desc4">Created with Sketch.</desc>
  <g
     id="Page-1"
     style="fill:none;fill-rule:evenodd;stroke:none;stroke-width:1"
     transform="translate(0,350)">
    <g
       id="33.-MEET-OUR-TEAM-Copy"
       transform="translate(-1046,-1069)"
       style="fill-rule:nonzero">
      <g
         id="19--Taskbooker-img"
         transform="translate(1046,1069)">
        <path
           d="m 247.17784,114.90313 c -3.95936,0 -7.22112,-3.15046 -7.33616,-7.1321 -0.11501,-4.05217 3.07622,-7.42894 7.12837,-7.54397 4.05957,-0.18556 7.46976,2.95747 7.64787,7.00961 0.18181,4.04846 -2.9649,7.4772 -7.01704,7.65531 l -0.21153,0.006 c -0.0705,0.004 -0.1409,0.004 -0.21153,0.004 z m -29.51537,-1.10581 c -0.28945,0 -0.57518,-0.0158 -0.86832,-0.0482 l -0.0178,-0.004 c -4.03359,-0.40446 -6.95397,-3.99649 -6.5495,-8.0338 0.40448,-4.03359 4.02618,-6.96881 8.05607,-6.56804 l 0.22633,0.0221 c 4.02618,0.47498 6.90573,4.12268 6.43076,8.14884 -0.43788,3.73673 -3.60686,6.48271 -7.27682,6.48271 z m 58.96396,-2.26359 c -3.43615,0 -6.50496,-2.4231 -7.19144,-5.92235 -0.78669,-3.97794 1.80343,-7.83714 5.78135,-8.62009 l 0.13734,-0.0253 c 3.98164,-0.7607 7.82599,1.85167 8.5867,5.83332 0.7607,3.97793 -1.84795,7.82597 -5.82961,8.5867 l -0.0557,0.0119 c -0.48238,0.0929 -0.95737,0.13734 -1.42863,0.13734 z m -88.08601,-3.32854 c -0.63825,0 -1.28763,-0.0852 -1.93701,-0.25965 l -0.0408,-0.0118 c -3.91485,-1.04271 -6.25263,-5.06145 -5.21362,-8.97632 1.03901,-3.91855 5.05406,-6.252622 8.96891,-5.217329 l 0.15214,0.04091 c 3.91114,1.068689 6.21553,5.102299 5.14683,9.013439 -0.89059,3.26548 -3.84806,5.41027 -7.07642,5.41027 z m 116.68855,-4.51227 c -3.00201,0 -5.81477,-1.84795 -6.90201,-4.83141 -1.38413,-3.81097 0.58259,-8.022657 4.38983,-9.406762 l 0.12252,-0.04091 c 3.81094,-1.369285 8.01525,0.60856 9.38821,4.42321 1.373,3.814672 -0.61226,8.018962 -4.42693,9.391962 l -0.063,0.0221 c -0.83121,0.30051 -1.67727,0.44157 -2.50846,0.44157 z M 160.58356,98.19357 c -1.0019,0 -2.01865,-0.20774 -2.99458,-0.64939 l -0.10019,-0.0447 c -3.69221,-1.67354 -5.32865,-6.022543 -3.6551,-9.71477 1.67355,-3.692188 6.01885,-5.32865 9.71477,-3.655075 3.69591,1.66982 5.37689,6.033706 3.71076,9.729588 -1.22826,2.720017 -3.88516,4.334167 -6.67566,4.334167 z m 171.68201,-6.631144 c -2.62723,0 -5.16168,-1.410072 -6.48271,-3.88514 -1.91103,-3.577194 -0.55662,-8.026391 3.02057,-9.933707 3.55117,-1.951878 8.01523,-0.656798 9.9708,2.89437 1.95186,3.551228 0.66051,8.015246 -2.89441,9.967124 l -0.16679,0.09268 c -1.1021,0.586269 -2.28211,0.864572 -3.4473,0.864572 z m 66.66377,-65.613618 0.048,0.03324 -0.77556,-0.552905 z M 60.107336,-6.045369 c -2.898103,0 -5.644064,-1.7292016 -6.805531,-4.579065 l -0.01877,-0.05193 c -1.547387,-3.747854 0.237489,-8.041208 3.981646,-9.584883 3.747866,-1.547385 8.041214,0.237489 9.58489,3.981642 l 0.05195,0.129834 c 1.528836,3.755264 -0.282008,8.0375012 -4.037305,9.5626203 -0.901712,0.3673473 -1.840537,0.5417597 -2.757094,0.5417597 z M 424.44452,-20.131403 c -0.76812,0 -1.55109,-0.122444 -2.32292,-0.378497 -3.81839,-1.272791 -5.89641,-5.384313 -4.66814,-9.210105 1.19858,-3.855478 5.28782,-6.033696 9.15075,-4.861095 3.87771,1.180022 6.06706,5.265567 4.89447,9.139601 l -0.0927,0.289451 c -1.02418,3.076219 -3.88887,5.020658 -6.96139,5.020658 z M 51.13101,-34.302794 c -3.321129,0 -6.330556,-2.267272 -7.135792,-5.636643 l -0.02217,-0.09648 c -0.938821,-3.944537 1.491726,-7.903914 5.436262,-8.84645 3.944537,-0.942532 7.903916,1.491726 8.842739,5.436262 l 0.02217,0.09648 c 0.942532,3.940825 -1.491725,7.900207 -5.432552,8.842739 -0.575169,0.137304 -1.146622,0.204081 -1.710659,0.204081 z m 380.06338,-14.698318 c -0.42302,0 -0.84974,-0.03711 -1.2839,-0.115032 -3.96312,-0.697622 -6.62001,-4.460331 -5.96691,-8.419712 0.61597,-3.989069 4.33786,-6.742451 8.33064,-6.156151 4.00764,0.593721 6.77957,4.308192 6.18957,8.319522 l -0.0482,0.30427 c -0.6271,3.558619 -3.72559,6.067091 -7.22114,6.067091 z M 46.600171,-63.61779 c -3.76642,0 -6.968805,-2.872127 -7.302773,-6.6905 l -0.02217,-0.30427 c -0.237488,-4.048437 2.849863,-7.517996 6.898303,-7.759196 4.01133,-0.244899 7.473469,2.809043 7.751776,6.816664 0.322836,4.022464 -2.660616,7.566237 -6.686789,7.911339 -0.215228,0.01877 -0.426739,0.02597 -0.638252,0.02597 z M 433.44312,-78.564731 c -4.05588,0 -7.33989,-3.28402 -7.33989,-7.339878 v -0.09648 c 0,-0.05195 0,-0.103887 0,-0.152145 0,-0.06308 0,-0.129893 0,-0.192972 v -0.09648 c 0,-4.055863 3.28401,-7.343595 7.33989,-7.343595 4.05215,0 7.33987,3.287732 7.33987,7.343595 v 0.09648 c 0,0.05195 0,0.103887 -0.004,0.152145 0.004,0.06308 0.004,0.126158 0.004,0.192972 v 0.09648 c 0,4.055858 -3.28401,7.339878 -7.33987,7.339878 z M 46.581619,-93.251915 c -0.211523,0 -0.426739,-0.01107 -0.641961,-0.02976 -4.033594,-0.348811 -7.020757,-3.896297 -6.679366,-7.926185 0.28201,-4.00762 3.710759,-7.06157 7.751777,-6.80924 4.048435,0.23749 7.135788,3.71076 6.898298,7.75549 l -0.02597,0.304268 c -0.330256,3.822081 -3.536353,6.705341 -7.302773,6.705341 z M 431.13874,-108.56251 c -3.49554,0 -6.5903,-2.50476 -7.21743,-6.06709 l -0.052,-0.30427 c -0.58627,-4.01133 2.18565,-7.74064 6.19697,-8.33065 3.98907,-0.59001 7.72582,2.1745 8.32323,6.1747 0.64939,3.95567 -2.00379,7.71096 -5.96687,8.41229 -0.43047,0.0779 -0.86092,0.11504 -1.28393,0.11504 z m 1.23198,-7.6219 -1.23941,0.18183 z m -381.336191,-6.37508 c -0.564035,0 -1.139203,-0.0668 -1.710657,-0.20408 -3.937119,-0.93882 -6.371377,-4.89078 -5.439975,-8.8279 0.868319,-3.91485 4.73122,-6.4159 8.668335,-5.59211 3.966799,0.83121 6.51238,4.72008 5.681172,8.68688 l -0.06677,0.30057 c -0.801524,3.36937 -3.810951,5.63664 -7.13208,5.63664 z m 373.369161,-14.82819 c -3.08734,0 -5.97059,-1.97413 -6.99847,-5.05777 l -0.0816,-0.25604 c -1.19489,-3.87404 0.97962,-7.98185 4.85737,-9.173 3.87775,-1.19487 7.97813,0.97964 9.173,4.85738 l 0.004,0.0111 c 1.28018,3.84805 -0.80896,7.96329 -4.65703,9.2435 -0.75699,0.25604 -1.53253,0.37479 -2.29695,0.37479 z M 59.932929,-150.86145 c -0.920268,0 -1.855377,-0.17441 -2.760805,-0.54177 -3.755286,-1.52512 -5.562426,-5.80734 -4.037305,-9.56263 l 0.03711,-0.0891 c 1.525125,-3.75529 5.80363,-5.56614 9.562628,-4.04102 3.755286,1.52512 5.562426,5.80734 4.037305,9.56263 l -0.03711,0.0928 c -1.157758,2.84986 -3.903719,4.57907 -6.801824,4.57907 z M 413.27144,-164.8807 c -2.67176,0 -5.25447,-1.46575 -6.56065,-3.99649 l -0.11146,-0.21522 c -1.7886,-3.64026 -0.28941,-8.03751 3.35081,-9.82609 3.63656,-1.78859 8.0338,-0.28945 9.8261,3.3471 l 0.004,0.0148 c 1.86281,3.59944 0.43416,8.0004 -3.16898,9.85949 -1.06869,0.5529 -2.21163,0.81636 -3.3397,0.81636 z M 73.076442,-177.45275 c -1.302481,0 -2.623509,-0.3451 -3.814663,-1.07612 -3.454717,-2.104 -4.549392,-6.60515 -2.460232,-10.05987 2.022364,-3.45472 6.45672,-4.657 9.952257,-2.67546 3.525219,2.0001 4.764613,6.47899 2.768224,10.00421 -0.05567,0.0965 -0.115033,0.19297 -0.174417,0.28945 -1.3804,2.26728 -3.796106,3.5178 -6.271179,3.5178 z m 324.954908,-12.89118 c -2.34892,0 -4.66074,-1.12807 -6.07822,-3.21723 -2.35632,-3.29886 -1.57339,-7.85196 1.7292,-10.2083 3.29517,-2.35633 7.90391,-1.55851 10.26023,1.74035 l 0.15572,0.22264 c 2.2747,3.35452 1.40266,7.91876 -1.95184,10.19716 -1.26166,0.85719 -2.69401,1.26537 -4.11524,1.26537 z M 90.131089,-201.71741 c -1.654997,0 -3.313707,-0.55661 -4.686689,-1.6921 -3.117036,-2.59011 -3.547486,-7.21743 -0.957376,-10.33818 l 0.06308,-0.0742 c 2.590112,-3.12075 7.213715,-3.54749 10.334465,-0.96109 3.12075,2.59011 3.551196,7.21743 0.961084,10.33818 l -0.06308,0.0742 c -1.450906,1.75148 -3.543772,2.65319 -5.651484,2.65319 z m 288.990201,-11.46253 c -1.92956,0 -3.85543,-0.75329 -5.29523,-2.25614 -2.83874,-2.8944 -2.79793,-7.5514 0.1,-10.39013 2.89068,-2.83502 7.53283,-2.7942 10.36788,0.10019 l 0.12252,0.12245 c 2.80904,2.92408 2.71256,7.57366 -0.21153,10.37899 -1.42493,1.36927 -3.25433,2.04463 -5.08374,2.04463 z m -268.44744,-9.92628 c -2.03349,0 -4.05215,-0.83493 -5.50306,-2.47508 -2.68658,-3.0354 -2.40086,-7.67385 0.63455,-10.36044 l 0.0298,-0.026 c 3.01684,-2.69773 7.659,-2.45282 10.36415,0.56403 2.70143,3.01314 2.46394,7.64045 -0.54549,10.34931 l -0.11874,0.1076 c -1.39896,1.23569 -3.1356,1.84054 -4.8611,1.84054 z m 246.28309,-9.77785 c -1.50656,0 -3.02054,-0.46014 -4.33043,-1.41751 l -0.24858,-0.18926 c -3.19868,-2.48992 -3.77756,-7.09868 -1.28763,-10.30107 2.48622,-3.19496 7.08384,-3.77384 10.28252,-1.29876 3.20611,2.40828 3.88888,6.95767 1.51398,10.20087 -1.43977,1.96671 -3.66991,3.00572 -5.9298,3.00572 z m 0.66054,-8.34179 -0.73474,0.94253 z m -223.40257,0.10019 c -2.42313,0 -4.7943,-1.19857 -6.19326,-3.39163 -2.17821,-3.4139 -1.18002,-7.94102 2.22275,-10.12666 3.3471,-2.21161 7.8631,-1.32474 10.11924,2.00381 2.2784,3.35453 1.40266,7.91876 -1.95186,10.19346 l -0.25605,0.1707 c -1.22083,0.77926 -2.58639,1.15033 -3.94082,1.15033 z m 197.82427,-7.87052 c -1.15773,0 -2.33406,-0.2746 -3.42872,-0.85718 l -0.1745,-0.0965 c -3.55118,-1.95186 -4.84624,-6.4159 -2.89439,-9.9671 1.95188,-3.5512 6.4159,-4.84625 9.96713,-2.89439 l 0.0221,0.0111 c 3.54378,1.9333 4.88334,6.3825 2.96862,9.93741 -1.32846,2.46395 -3.85179,3.86661 -6.46046,3.86661 z m -171.81556,-6.34911 c -2.79791,0 -5.47337,-1.60675 -6.69792,-4.31932 -1.66984,-3.6922 -0.0298,-8.0375 3.66252,-9.70734 l 0.1707,-0.0742 c 3.71076,-1.62902 8.03751,0.0668 9.66653,3.78127 1.6216,3.71447 -0.0705,8.04121 -3.78498,9.66652 -0.97964,0.44158 -2.00752,0.6531 -3.01684,0.6531 z"
           id="Shape"
           inkscape:connector-curvature="0"
           style="fill:#a7c7d3;stroke-width:3.1665144" />
        <path
           d="M 296.52722,56.488344 186.01711,-54.021766 c -6.92799,-6.924277 -6.93541,-18.130772 -0.0188,-25.043917 2.73112,-2.731117 6.14502,-4.386116 9.69251,-4.946439 5.414,-0.872031 11.16195,0.779259 15.3514,4.968707 l -28.45771,-28.457815 c -3.45843,-3.45842 -5.19507,-7.99298 -5.19507,-12.51639 0,-0.94253 0.0742,-1.88878 0.22635,-2.83131 0.56774,-3.55491 2.21532,-6.96138 4.95015,-9.69621 2.70514,-2.70515 6.05967,-4.3453 9.56262,-4.92789 4.76833,-0.7941 9.79269,0.36736 13.79662,3.48811 l -10.82801,-10.82799 c -3.46213,-3.46214 -5.19877,-8.00782 -5.19877,-12.53495 -0.007,-0.96108 0.0779,-1.92959 0.23749,-2.87584 0.56774,-3.53264 2.21161,-6.92056 4.9316,-9.64055 2.73483,-2.73483 6.14501,-4.38983 9.71106,-4.95015 5.41028,-0.87203 11.16197,0.78297 15.34771,4.9687 l 12.40134,12.40136 c -4.17817,-4.17831 -5.84059,-9.93741 -4.96855,-15.3477 0.56032,-3.5512 2.20789,-6.95767 4.95015,-9.69621 6.90571,-6.90572 18.12335,-6.8983 25.0439,0.0222 l 71.81806,71.81803 0.20045,-0.28571 c 3.64025,-3.64026 7.92985,-6.22666 12.50525,-7.77033 11.29182,-3.80724 24.29062,-1.206 33.30033,7.80744 l 33.4859,33.485883 c 6.43815,6.434456 10.04874,15.15474 10.0636,24.246101 l 0.0198,20.950945 c 0.006,9.788982 3.90372,19.1809 10.83911,26.1163255 l 7.46605,7.46604 -85.41054,85.4105535 -9.54407,-9.544106 c -6.3454,-6.345367 -14.78738,-10.167447 -23.73402,-10.753756 -8.3121,-0.5455 -16.13809,-4.096688 -22.03449,-9.99309 z"
           id="Path"
           inkscape:connector-curvature="0"
           style="fill:#fecbaa;stroke-width:3.1665144" />
        <path
           d="m 346.2885,92.326866 96.94731,-96.9473035 c 3.19495,-3.1949508 8.37147,-3.1949508 11.56643,0 l 34.52491,34.5249195 c 3.19496,3.194951 3.19496,8.375178 0,11.566422 l -96.9436,96.947306 c -3.19494,3.19494 -8.37518,3.19494 -11.56641,0 L 346.2885,103.89328 c -3.19123,-3.19494 -3.19123,-8.37516 0,-11.566414 z"
           id="path8"
           style="fill:#fe9a20;fill-opacity:1;stroke-width:3.1665144"
           inkscape:connector-curvature="0" />
        <path
           d="m 445.81478,38.895641 c 2.86843,2.868419 7.5106,2.872124 10.37157,0.01265 2.86101,-2.861008 2.8573,-7.506887 -0.006,-10.371569 -2.86842,-2.868419 -7.51059,-2.872156 -10.37158,-0.01265 -2.86102,2.864714 -2.8573,7.506856 0.006,10.37157 z"
           id="path10"
           style="fill:#e97713;fill-opacity:1;stroke-width:3.1665144"
           inkscape:connector-curvature="0" />
        <path
           d="m 354.09967,-85.923165 -24.72849,-24.724785 0.20045,-0.28572 c 3.64025,-3.64025 7.92985,-6.22665 12.50525,-7.77033 l 22.40182,22.401855 c 2.86473,2.864704 2.86473,7.514288 0,10.378992 -2.87212,2.872131 -7.51427,2.864708 -10.37897,0 z"
           id="path12"
           inkscape:connector-curvature="0"
           style="fill:#ffae85;stroke-width:3.1665144" />
        <path
           d="M 200.54474,56.49949 311.05486,-54.010637 c 6.92798,-6.927983 6.93541,-18.130767 0.0221,-25.043912 -2.73481,-2.73483 -6.145,-4.389827 -9.69621,-4.950151 -5.414,-0.87203 -11.16195,0.782969 -15.3514,4.968703 L 314.4872,-107.4901 c 3.45843,-3.45842 5.19506,-7.99297 5.19506,-12.5201 0,-0.93882 -0.0743,-1.88877 -0.22633,-2.8276 -0.56775,-3.55861 -2.21532,-6.96138 -4.95015,-9.69621 -2.70515,-2.70515 -6.05967,-4.3453 -9.56262,-4.92789 -4.76833,-0.7941 -9.79271,0.36737 -13.79662,3.48812 l 10.828,-10.83171 c 3.46214,-3.45843 5.19878,-8.00411 5.19878,-12.53124 0.008,-0.96479 -0.0779,-1.9333 -0.2375,-2.87954 -0.56403,-3.52894 -2.2116,-6.92057 -4.9316,-9.64056 -2.73481,-2.73111 -6.145,-4.38612 -9.71105,-4.94644 -5.41028,-0.87203 -11.16197,0.77926 -15.34771,4.96871 l -12.40134,12.40135 c 4.1784,-4.18202 5.84081,-9.93741 4.96879,-15.35141 -0.56032,-3.54748 -2.20791,-6.95396 -4.95015,-9.69621 -6.90573,-6.90572 -18.12335,-6.8983 -25.04392,0.0222 l -71.81804,71.81803 -0.20038,-0.28201 c -3.64025,-3.64025 -7.92989,-6.22665 -12.50526,-7.77033 -11.29555,-3.80724 -24.29063,-1.20599 -33.30035,7.80373 l -33.485889,33.489601 c -6.438168,6.434456 -10.048738,15.154742 -10.063581,24.246099 l -0.02217,20.947239 c -0.0038,9.792692 -3.900009,19.184625 -10.835417,26.1200214 l -7.46605,7.4660381 85.410547,85.4105455 9.54407,-9.544066 c 6.3454,-6.345407 14.78737,-10.167487 23.73402,-10.753756 8.3121,-0.545501 16.13809,-4.096689 22.03447,-9.993091 z"
           id="path14"
           inkscape:connector-curvature="0"
           style="fill:#fecbaa;stroke-width:3.1665144" />
        <path
           d="M 150.78345,92.334277 53.836154,-4.6092919 c -3.194964,-3.1949805 -8.371473,-3.1949805 -11.566438,0 L 7.7448133,29.915596 c -3.1949646,3.194982 -3.1949646,8.371473 0,11.566456 L 104.6884,138.42931 c 3.19496,3.19499 8.37518,3.19499 11.57015,0 l 34.5249,-34.52488 c 3.19496,-3.19499 3.19496,-8.37517 0,-11.570153 z"
           id="path16"
           style="fill:#0a67b2;fill-opacity:1;stroke-width:3.1665144"
           inkscape:connector-curvature="0" />
        <path
           d="m 117.69461,105.33677 c 2.86842,-2.86842 2.87213,-7.51055 0.0111,-10.37157 -2.86099,-2.864704 -7.50686,-2.860969 -10.37157,0.006 -2.86841,2.86469 -2.87213,7.51058 -0.0111,10.37159 2.8647,2.86097 7.50686,2.85726 10.37157,-0.006 z"
           id="path18"
           style="fill:#2f2158;fill-opacity:1;stroke-width:3.1665144"
           inkscape:connector-curvature="0" />
        <path
           d="m 142.97601,-85.912031 24.72479,-24.728499 -0.20038,-0.28201 c -3.64025,-3.64025 -7.92989,-6.22665 -12.50526,-7.77033 l -22.40185,22.398144 c -2.86471,2.864706 -2.86471,7.517997 0,10.382705 2.87213,2.872126 7.51429,2.864704 10.38271,0 z"
           id="path20"
           inkscape:connector-curvature="0"
           style="fill:#ffae85;stroke-width:3.1665144" />
        <path
           d="m 319.21482,-208.34853 v 156.286044 c 0,9.796405 -7.91505,17.722587 -17.6929,17.722587 -3.86662,0 -7.44749,-1.243106 -10.35672,-3.358237 -4.44179,-3.209808 -7.33989,-8.44569 -7.33989,-14.36435 v 40.2432 c 0,4.8907768 -1.97783,9.3251308 -5.17651,12.5237869 -0.66423,0.6679438 -1.39154,1.2839262 -2.16337,1.8405348 -2.91666,2.1151363 -6.48642,3.3582473 -10.35303,3.3582473 -3.82579,0 -7.36214,-1.213409 -10.24912,-3.2766139 -3.9334,-2.8090473 -6.66452,-7.1840294 -7.28792,-12.2269256 V 5.717757 c 0,4.894482 -1.98897,9.336247 -5.18765,12.534932 -0.67535,0.686502 -1.42122,1.313599 -2.20048,1.870239 -2.8981,2.096551 -6.46044,3.328545 -10.30848,3.328545 -3.86291,0 -7.4475,-1.24311 -10.36416,-3.365656 -4.44176,-3.209833 -7.33987,-8.445696 -7.33987,-14.36806 v -17.537043 c 0,5.911217 -2.89439,11.154522 -7.33989,14.3643217 -2.90554,2.1151363 -6.47899,3.3582473 -10.35302,3.3582473 -9.77043,0 -17.69661,-7.9373119 -17.69661,-17.722569 V -113.38649 l -0.34139,0.0594 c -5.14683,0 -10.01163,-1.206 -14.33838,-3.3471 -10.67585,-5.29525 -18.02687,-16.32363 -18.02687,-29.06637 v -47.36042 c 0,-9.09879 3.61057,-17.81907 10.03019,-24.26095 l 14.79851,-14.82448 c 6.92056,-6.9317 10.80573,-16.32363 10.80573,-26.13117 v -10.56082 h 120.78522 v 13.49604 c 0,8.97261 3.26917,17.64465 9.18041,24.3871 5.49192,6.26377 8.5162,14.30869 8.5162,22.64677 z"
           id="path22"
           inkscape:connector-curvature="0"
           style="fill:#fedfc5;stroke-width:3.1665144" />
        <path
           d="m 311.07711,-79.054549 c -2.73481,-2.73483 -6.145,-4.386116 -9.69621,-4.950151 -5.414,-0.87203 -11.16195,0.782969 -15.3514,4.972414 l 28.4578,-28.457814 c 3.45843,-3.45842 5.19878,-7.99297 5.19878,-12.51639 0,-0.94253 -0.0779,-1.89248 -0.23009,-2.83131 -0.56773,-3.55861 -2.2116,-6.96138 -4.94644,-9.69621 -2.70513,-2.70515 -6.06336,-4.3453 -9.56262,-4.92789 -4.76833,-0.7941 -9.79269,0.36737 -13.80031,3.48812 l 10.83172,-10.83171 c 3.45842,-3.45843 5.19506,-8.00411 5.19506,-12.53124 0.008,-0.96108 -0.0743,-1.92959 -0.2338,-2.87954 -0.56774,-3.52894 -2.21532,-6.92057 -4.9353,-9.64056 -2.73112,-2.73111 -6.14502,-4.38612 -9.70735,-4.94644 -5.41029,-0.87203 -11.16567,0.78297 -15.35141,4.96871 l -12.40136,12.40135 c 4.17834,-4.18202 5.84075,-9.93741 4.96873,-15.35141 -0.56032,-3.54748 -2.20791,-6.95396 -4.94644,-9.69621 -6.90944,-6.90572 -18.12706,-6.8983 -25.04763,0.0222 l -71.81804,71.81803 -0.20038,-0.28201 c -3.64025,-3.64025 -7.92989,-6.22665 -12.50526,-7.77033 -5.41771,-1.82569 -11.22504,-2.16337 -16.80231,-1.03901 4.49002,6.78698 10.76862,12.4162 18.42021,16.21231 2.12255,1.05014 4.29706,1.9333 6.51609,2.64577 v 89.054519 c 0,17.86728 14.52391,32.40234 32.37266,32.40234 2.14853,0 4.26366,-0.207722 6.32312,-0.61598 2.30441,4.708954 5.74057,8.853859 10.07102,11.982027 2.68659,1.959281 5.61809,3.458435 8.70174,4.497431 l 90.45717,-90.457074 c 6.92798,-6.927983 6.93541,-18.130767 0.0221,-25.043912 z"
           id="path24"
           inkscape:connector-curvature="0"
           style="fill:#ffae85;stroke-width:3.1665144" />
        <path
           d="m 333.88717,-52.062486 v -62.504034 c -1.51771,1.06499 -2.96491,2.27841 -4.32305,3.63284 l -0.20045,0.28571 -71.81802,-71.81803 c -6.92057,-6.92057 -18.13819,-6.92799 -25.04392,-0.0222 -2.74224,2.73854 -4.38983,6.14501 -4.95015,9.69621 -0.87202,5.41029 0.79039,11.16939 4.96871,15.3477 l -12.40136,-12.40136 c -4.18574,-4.18573 -9.93741,-5.84073 -15.34771,-4.9687 -3.56603,0.56032 -6.97623,2.21532 -9.71106,4.95015 -2.71998,2.71999 -4.36756,6.10791 -4.9353,9.64055 -0.15586,0.94625 -0.2412,1.91476 -0.23379,2.87584 0,4.52713 1.73664,9.07281 5.19877,12.53495 l 10.82801,10.82799 c -4.00762,-3.12074 -9.02829,-4.28221 -13.79661,-3.48811 -3.50296,0.58259 -6.85749,2.22275 -9.56263,4.92789 -2.73483,2.73483 -4.38241,6.14131 -4.95015,9.69622 -0.15215,0.94253 -0.23008,1.88878 -0.22635,2.83131 -0.004,4.52712 1.73664,9.05796 5.19507,12.51639 l 28.45781,28.45781 c -4.18574,-4.185739 -9.93742,-5.840738 -15.3477,-4.968707 -3.5512,0.560323 -6.9651,2.215322 -9.69622,4.946441 -6.91314,6.916854 -6.90572,18.119638 0.0188,25.047626 l 74.03338,74.02966 c 1.98895,0.378492 4.02246,0.571459 6.08192,0.571459 6.86121,0 13.42182,-2.126282 18.94344,-6.130182 1.40638,-1.016735 2.73853,-2.148542 3.95567,-3.365656 6.11161,-6.111626 9.47727,-14.2456098 9.47727,-22.906502 v -7.978158 c 0.99449,0.09278 2.00381,0.137304 3.01314,0.137304 17.84874,0 32.37266,-14.535042 32.37266,-32.402348 z"
           id="path26"
           inkscape:connector-curvature="0"
           style="fill:#ffae85;stroke-width:3.1665144" />
        <path
           d="m 319.21482,-208.34853 v 156.286044 c 0,9.796405 -7.91505,17.722587 -17.6929,17.722587 -0.26346,0 -0.54919,0 -0.83121,-0.01877 -3.53635,-0.166967 -6.81295,-1.369271 -9.50326,-3.328552 -0.0119,0 -0.0119,-0.01107 -0.0221,-0.01107 -4.44177,-3.209808 -7.33988,-8.445691 -7.33988,-14.36435 v 40.243215 c 0,4.8907774 -1.97782,9.3251315 -5.1765,12.5237856 -0.66423,0.6679457 -1.39154,1.2839282 -2.16337,1.8405368 -2.91666,2.1151366 -6.48642,3.3582476 -10.35303,3.3582476 -3.82579,0 -7.36214,-1.213409 -10.24912,-3.2766142 -3.9334,-2.8090473 -6.66452,-7.1840294 -7.28792,-12.2269257 V 5.717618 c 0,4.894483 -1.98897,9.336247 -5.18765,12.534933 -0.67535,0.686502 -1.42122,1.313598 -2.20048,1.870239 -2.8981,2.09655 -6.46044,3.328545 -10.30848,3.328545 -3.86291,0 -7.4475,-1.24311 -10.36416,-3.365656 -4.44177,-3.209833 -7.33987,-8.445696 -7.33987,-14.368061 v -17.536967 c 0,5.9112167 -2.89439,11.1545218 -7.33989,14.3643215 -2.90554,2.1151365 -6.47899,3.3582475 -10.35302,3.3582475 -9.77043,0 -17.69661,-7.9373121 -17.69661,-17.722569 V -113.38649 l -0.34139,0.0594 c -5.14683,0 -10.01163,-1.206 -14.33838,-3.3471 -10.67589,-5.29525 -18.02691,-16.32363 -18.02691,-29.06637 v -47.36042 c 0,-9.09879 3.61057,-17.81907 10.03019,-24.26095 l 14.79841,-14.82448 c 4.2785,-4.28592 7.39925,-9.51438 9.15073,-15.2104 1.09838,-3.52151 1.655,-7.23227 1.655,-10.92077 v -10.56082 h 120.78522 v 13.49604 c 0,3.02426 0.32654,6.21552 1.16518,9.12846 1.41008,5.61067 4.15234,10.84655 8.01523,15.25864 5.44368,6.21553 8.5162,14.36806 8.5162,22.64677 z"
           id="path28"
           inkscape:connector-curvature="0"
           style="fill:#fedfc5;stroke-width:3.1665144" />
        <path
           d="m 319.21482,-208.34853 v 156.286044 c 0,9.796405 -7.91505,17.722587 -17.6929,17.722587 -0.26346,0 -0.54919,0 -0.83121,-0.01877 -3.53635,-0.166967 -6.81295,-1.369271 -9.50326,-3.328552 l 0.30057,-150.597459 c 0,-0.909 -0.2041,-2.34878 -0.58631,-4.17818 -6.75358,-32.89589 -34.51747,-54.93408 -68.09613,-54.93408 h -43.72759 c 1.09838,-3.52523 1.655,-7.23227 1.655,-10.92077 v -10.56082 h 120.78522 v 13.49604 c 0,3.02426 0.32654,6.21551 1.16518,9.12846 1.41008,5.61067 4.15234,10.84655 8.01523,15.25864 5.44368,6.21552 8.5162,14.36806 8.5162,22.64676 z"
           id="path30"
           inkscape:connector-curvature="0"
           style="fill:#fecbaa;stroke-width:3.1665144" />
        <path
           d="M 309.37018,-268.87473 H 172.26503 c -4.51599,0 -8.17851,-3.66252 -8.17851,-8.17851 v -48.82988 c 0,-4.51599 3.66252,-8.17851 8.17851,-8.17851 h 137.10515 c 4.51599,0 8.1785,3.66252 8.1785,8.17851 v 48.82988 c 0,4.51599 -3.66251,8.17851 -8.1785,8.17851 z"
           id="path32"
           style="fill:#5de1b3;fill-opacity:1;stroke-width:3.1665144"
           inkscape:connector-curvature="0" />
        <path
           d="m 202.83426,-301.46632 c 0,-4.05586 -3.2803,-7.33989 -7.32874,-7.33989 -4.04844,0 -7.32875,3.28403 -7.32875,7.33989 0,4.05215 3.28031,7.33988 7.32875,7.33988 4.04844,0 7.32874,-3.28773 7.32874,-7.33988 z"
           id="path34"
           style="fill:#1c7065;fill-opacity:1;stroke-width:3.1665144"
           inkscape:connector-curvature="0" />
        <g
           id="Group"
           transform="matrix(3.1665146,0,0,3.1665146,163.04009,-156.42017)"
           style="fill:#fecbaa">
          <path
             d="M 40.463672,7.1273436 V 37.492969 c -1.403906,-1.013672 -2.319141,-2.667188 -2.319141,-4.5375 v 12.708984 c 0,1.545703 -0.623437,2.946094 -1.634765,3.95625 -0.209766,0.210938 -0.438282,0.405469 -0.683203,0.58125 V 7.1273436 c 0,-1.2796872 1.039453,-2.3179686 2.317968,-2.3179686 1.279688,0 2.319141,1.0382814 2.319141,2.3179686 z"
             id="path36"
             inkscape:connector-curvature="0" />
          <path
             d="M 29.321484,7.1273436 V 50.226562 C 28.078125,49.339453 27.216797,47.957813 27.01875,46.366406 v 4.8375 c 0,1.544532 -0.626953,2.948438 -1.638281,3.958594 -0.213282,0.216797 -0.447657,0.413672 -0.694922,0.590625 V 7.1273436 c 0,-1.2796872 1.038281,-2.3179686 2.317969,-2.3179686 1.279687,0 2.317968,1.0382814 2.317968,2.3179686 z"
             id="path38"
             inkscape:connector-curvature="0" />
          <path
             d="M 18.157031,7.1273436 V 55.740234 c -1.402734,-1.013672 -2.317968,-2.667187 -2.317968,-4.536328 v -5.539453 c 0,1.866797 -0.914063,3.523828 -2.317969,4.5375 V 7.1273436 c 0,-1.2796872 1.039453,-2.3179686 2.317969,-2.3179686 1.283203,0 2.317968,1.0382814 2.317968,2.3179686 z"
             id="path40"
             inkscape:connector-curvature="0" />
          <path
             d="M 4.6640625,2.5464843 V 13.590234 l -0.1089843,0.01758 c -1.6253907,0 -3.1617189,-0.379688 -4.5269532,-1.05586 V 2.5464843 c 0,-1.2796875 1.0382814,-2.3179686 2.3179686,-2.3179686 1.2820314,0 2.3179689,1.0382811 2.3179689,2.3179686 z"
             id="path42"
             inkscape:connector-curvature="0" />
        </g>
      </g>
    </g>
  </g>
  <rect
     y="315.1257"
     x="-119.29256"
     height="235.33417"
     width="114.27456"
     id="rect2588"
     style="display:inline;opacity:1;fill:#000000;fill-opacity:0;stroke-width:0.0724419" />
  <rect
     ry="0"
     y="327.38327"
     x="-75.910049"
     height="17.240967"
     width="31.24925"
     id="rect1565"
     style="display:inline;opacity:1;fill:#5de1b3;fill-opacity:1;stroke-width:0.18857308" />
  <rect
     ry="0"
     y="344.62421"
     x="-75.910049"
     height="17.240967"
     width="31.24925"
     id="rect1565-3"
     style="display:inline;opacity:1;fill:#0a67b2;fill-opacity:1;stroke-width:0.18857308" />
  <rect
     ry="0"
     y="344.62421"
     x="-44.660706"
     height="17.240967"
     width="31.24925"
     id="rect1565-3-2"
     style="display:inline;opacity:1;fill:#2f2158;fill-opacity:1;stroke-width:0.18857308" />
  <rect
     ry="0"
     y="447.50467"
     x="-75.910049"
     height="17.240967"
     width="31.24925"
     id="rect1565-3-2-8"
     style="display:inline;opacity:1;fill:#d4195e;fill-opacity:1;stroke-width:0.18857308" />
  <rect
     ry="0"
     y="370.40646"
     x="-75.910049"
     height="17.240967"
     width="31.24925"
     id="rect1565-3-2-4"
     style="display:inline;opacity:1;fill:#f9e2d5;fill-opacity:1;stroke-width:0.18857308" />
  <rect
     ry="0"
     y="430.26385"
     x="-75.910049"
     height="17.240967"
     width="31.24925"
     id="rect1565-3-2-4-7"
     style="display:inline;opacity:1;fill:#fe9a20;fill-opacity:1;stroke-width:0.18857308" />
  <rect
     ry="0"
     y="506.05847"
     x="-75.910049"
     height="17.240967"
     width="31.24925"
     id="rect1565-3-2-4-7-8"
     style="display:inline;opacity:1;fill:#ffda44;fill-opacity:1;stroke-width:0.18857308" />
  <rect
     ry="0"
     y="506.05847"
     x="-44.660706"
     height="17.240967"
     width="31.24925"
     id="rect1565-3-2-4-7-8-4"
     style="display:inline;opacity:1;fill:#ffcd00;fill-opacity:1;stroke-width:0.18857308" />
  <rect
     ry="0"
     y="430.26385"
     x="-44.660706"
     height="17.240967"
     width="31.24925"
     id="rect1565-3-2-4-7-4"
     style="display:inline;opacity:1;fill:#e97713;fill-opacity:1;stroke-width:0.18857308" />
  <rect
     ry="0"
     y="370.40646"
     x="-44.660706"
     height="17.240967"
     width="31.24925"
     id="rect1565-3-2-4-0"
     style="display:inline;opacity:1;fill:#f7baad;fill-opacity:1;stroke-width:0.18857308" />
  <rect
     ry="0"
     y="447.50467"
     x="-44.660706"
     height="17.240967"
     width="31.24925"
     id="rect1565-3-2-8-3"
     style="display:inline;opacity:1;fill:#3d265a;fill-opacity:1;stroke-width:0.18857308" />
  <text
     id="text1734"
     y="337.87009"
     x="-110.58867"
     style="font-style:normal;font-weight:normal;font-size:8.1345644px;line-height:1.25;font-family:sans-serif;letter-spacing:0px;word-spacing:0px;display:inline;fill:#000000;fill-opacity:1;stroke:none;stroke-width:0.20336415"
     xml:space="preserve"><tspan
       style="font-size:4.88073969px;stroke-width:0.20336415"
       y="337.87009"
       x="-110.58867"
       id="tspan1732"
       sodipodi:role="line">TB-groen</tspan></text>
  <text
     id="text1734-0"
     y="354.65408"
     x="-110.58867"
     style="font-style:normal;font-weight:normal;font-size:8.1345644px;line-height:1.25;font-family:sans-serif;letter-spacing:0px;word-spacing:0px;display:inline;fill:#000000;fill-opacity:1;stroke:none;stroke-width:0.20336415"
     xml:space="preserve"><tspan
       id="tspan1754"
       style="font-size:4.88073969px;stroke-width:0.20336415"
       y="354.65408"
       x="-110.58867"
       sodipodi:role="line">TB-blauw</tspan></text>
  <text
     id="text1734-0-9"
     y="457.9812"
     x="-111.07722"
     style="font-style:normal;font-weight:normal;font-size:8.1345644px;line-height:1.25;font-family:sans-serif;letter-spacing:0px;word-spacing:0px;display:inline;fill:#000000;fill-opacity:1;stroke:none;stroke-width:0.20336415"
     xml:space="preserve"><tspan
       id="tspan1754-0"
       style="font-size:4.88073969px;stroke-width:0.20336415"
       y="457.9812"
       x="-111.07722"
       sodipodi:role="line">Kledij-roze</tspan></text>
  <text
     id="text1734-0-9-3"
     y="380.4277"
     x="-111.06529"
     style="font-style:normal;font-weight:normal;font-size:8.1345644px;line-height:1.25;font-family:sans-serif;letter-spacing:0px;word-spacing:0px;display:inline;fill:#000000;fill-opacity:1;stroke:none;stroke-width:0.20336415"
     xml:space="preserve"><tspan
       id="tspan1754-0-7"
       style="font-size:4.88073969px;stroke-width:0.20336415"
       y="380.4277"
       x="-111.06529"
       sodipodi:role="line">Huidskleur</tspan></text>
  <text
     id="text1734-0-9-4"
     y="440.78638"
     x="-111.07722"
     style="font-style:normal;font-weight:normal;font-size:8.1345644px;line-height:1.25;font-family:sans-serif;letter-spacing:0px;word-spacing:0px;display:inline;fill:#000000;fill-opacity:1;stroke:none;stroke-width:0.20336415"
     xml:space="preserve"><tspan
       id="tspan1754-0-9"
       style="font-size:4.88073969px;stroke-width:0.20336415"
       y="440.78638"
       x="-111.07722"
       sodipodi:role="line">Kledij-oranje</tspan></text>
  <text
     id="text1734-0-9-4-5"
     y="515.65088"
     x="-111.06529"
     style="font-style:normal;font-weight:normal;font-size:8.1345644px;line-height:1.25;font-family:sans-serif;letter-spacing:0px;word-spacing:0px;display:inline;fill:#000000;fill-opacity:1;stroke:none;stroke-width:0.20336415"
     xml:space="preserve"><tspan
       id="tspan1754-0-9-7"
       style="font-size:4.88073969px;stroke-width:0.20336415"
       y="515.65088"
       x="-111.06529"
       sodipodi:role="line">Rating-geel</tspan></text>
  <rect
     ry="0"
     y="523.29944"
     x="-75.910049"
     height="17.240967"
     width="31.24925"
     id="rect1565-3-2-4-6"
     style="display:inline;opacity:1;fill:#fffefe;fill-opacity:1;stroke-width:0.18857308" />
  <rect
     ry="0"
     y="523.29944"
     x="-44.660706"
     height="17.240967"
     width="31.24925"
     id="rect1565-3-2-4-0-6"
     style="display:inline;opacity:1;fill:#fbf7f6;fill-opacity:1;stroke-width:0.18857308" />
  <text
     id="text1734-0-9-4-5-3"
     y="533.20007"
     x="-111.06529"
     style="font-style:normal;font-weight:normal;font-size:8.1345644px;line-height:1.25;font-family:sans-serif;letter-spacing:0px;word-spacing:0px;display:inline;fill:#000000;fill-opacity:1;stroke:none;stroke-width:0.20336415"
     xml:space="preserve"><tspan
       id="tspan1754-0-9-7-9"
       style="font-size:4.88073969px;stroke-width:0.20336415"
       y="533.20007"
       x="-111.06529"
       sodipodi:role="line">Achtergrond</tspan></text>
  <rect
     ry="0"
     y="387.64746"
     x="-75.910049"
     height="17.240967"
     width="31.24925"
     id="rect1565-3-2-4-6-8"
     style="display:inline;opacity:1;fill:#a3382d;fill-opacity:1;stroke-width:0.18857308" />
  <text
     id="text1734-0-9-4-5-3-4"
     y="396.74133"
     x="-111.48"
     style="font-style:normal;font-weight:normal;font-size:8.1345644px;line-height:1.25;font-family:sans-serif;letter-spacing:0px;word-spacing:0px;display:inline;fill:#000000;fill-opacity:1;stroke:none;stroke-width:0.20336415"
     xml:space="preserve"><tspan
       id="tspan1754-0-9-7-9-4"
       style="font-size:4.88073969px;stroke-width:0.20336415"
       y="396.74133"
       x="-111.48"
       sodipodi:role="line">Haarkleur</tspan></text>
  <rect
     ry="0"
     y="387.64746"
     x="-44.660706"
     height="17.240967"
     width="31.24925"
     id="rect1565-3-2-4-6-8-3"
     style="display:inline;opacity:1;fill:#2f2158;fill-opacity:1;stroke-width:0.18857308" />
  <rect
     ry="0"
     y="327.38327"
     x="-44.660706"
     height="17.240967"
     width="31.24925"
     id="rect1565-5"
     style="display:inline;opacity:1;fill:#1c7065;fill-opacity:1;stroke-width:0.18857308" />
  <rect
     ry="0"
     y="413.02292"
     x="-75.910049"
     height="17.240967"
     width="31.24925"
     id="rect1565-3-2-4-6-8-6"
     style="display:inline;opacity:1;fill:#087a99;fill-opacity:1;stroke-width:0.18857308" />
  <rect
     ry="0"
     y="413.02292"
     x="-44.660706"
     height="17.240967"
     width="31.24925"
     id="rect1565-3-2-4-6-8-3-7"
     style="display:inline;opacity:1;fill:#042d59;fill-opacity:1;stroke-width:0.18857308" />
  <text
     id="text1734-0-9-4-3"
     y="422.95367"
     x="-111.07722"
     style="font-style:normal;font-weight:normal;font-size:8.1345644px;line-height:1.25;font-family:sans-serif;letter-spacing:0px;word-spacing:0px;display:inline;fill:#000000;fill-opacity:1;stroke:none;stroke-width:0.20336415"
     xml:space="preserve"><tspan
       id="tspan1754-0-9-1"
       style="font-size:4.88073969px;stroke-width:0.20336415"
       y="422.95367"
       x="-111.07722"
       sodipodi:role="line">Kledij-blauw</tspan></text>
  <rect
     ry="0"
     y="464.74567"
     x="-75.910049"
     height="17.240967"
     width="31.24925"
     id="rect1565-3-2-8-8"
     style="display:inline;opacity:1;fill:#5c5a7f;fill-opacity:1;stroke-width:0.18857306" />
  <rect
     ry="0"
     y="464.74567"
     x="-44.660706"
     height="17.240967"
     width="31.24925"
     id="rect1565-3-2-8-3-4"
     style="display:inline;opacity:1;fill:#e4e4e4;fill-opacity:1;stroke-width:0.18857306" />
  <text
     id="text1734-0-9-5"
     y="475.22217"
     x="-111.07722"
     style="font-style:normal;font-weight:normal;font-size:8.1345644px;line-height:1.25;font-family:sans-serif;letter-spacing:0px;word-spacing:0px;display:inline;fill:#000000;fill-opacity:1;stroke:none;stroke-width:0.20336415"
     xml:space="preserve"><tspan
       id="tspan1754-0-94"
       style="font-size:4.88073921px;stroke-width:0.20336415"
       y="475.22217"
       x="-111.07722"
       sodipodi:role="line">Schoenen</tspan></text>
</svg>
