<?xml version="1.0" encoding="UTF-8" standalone="no"?>
<!-- Generator: Adobe Illustrator 19.0.0, SVG Export Plug-In . SVG Version: 6.00 Build 0)  -->

<svg
   xmlns:dc="http://purl.org/dc/elements/1.1/"
   xmlns:cc="http://creativecommons.org/ns#"
   xmlns:rdf="http://www.w3.org/1999/02/22-rdf-syntax-ns#"
   xmlns:svg="http://www.w3.org/2000/svg"
   xmlns="http://www.w3.org/2000/svg"
   xmlns:xlink="http://www.w3.org/1999/xlink"
   xmlns:sodipodi="http://sodipodi.sourceforge.net/DTD/sodipodi-0.dtd"
   xmlns:inkscape="http://www.inkscape.org/namespaces/inkscape"
   version="1.1"
   id="Layer_1"
   x="0px"
   y="0px"
   viewBox="0 0 504.516 504.516"
   style="enable-background:new 0 0 504.516 504.516;"
   xml:space="preserve"
   sodipodi:docname="Umbrella.svg"
   inkscape:export-filename="C:\Users\Yves Muyters\Dienstenbedrijf Easylife BVBA\Team site - TASKBOOKER\02. Ontwerpen, designs, visuals\Illustraties\Icoontjes\Umbrella.png"
   inkscape:export-xdpi="96"
   inkscape:export-ydpi="96"
   inkscape:version="0.92.4 (5da689c313, 2019-01-14)"><metadata
   id="metadata49"><rdf:RDF><cc:Work
       rdf:about=""><dc:format>image/svg+xml</dc:format><dc:type
         rdf:resource="http://purl.org/dc/dcmitype/StillImage" /></cc:Work></rdf:RDF></metadata><defs
   id="defs47"><linearGradient
     inkscape:collect="always"
     id="linearGradient952"><stop
       style="stop-color:#c4c8ca;stop-opacity:1"
       offset="0"
       id="stop948" /><stop
       style="stop-color:#edf3f5;stop-opacity:1"
       offset="1"
       id="stop950" /></linearGradient><linearGradient
     inkscape:collect="always"
     id="linearGradient944"><stop
       style="stop-color:#1c7065;stop-opacity:1"
       offset="0"
       id="stop940" /><stop
       style="stop-color:#5de1b3;stop-opacity:1"
       offset="1"
       id="stop942" /></linearGradient><linearGradient
     inkscape:collect="always"
     xlink:href="#linearGradient944"
     id="linearGradient946"
     x1="212.38521"
     y1="-16.999279"
     x2="305.35098"
     y2="206.72321"
     gradientUnits="userSpaceOnUse" /><linearGradient
     inkscape:collect="always"
     xlink:href="#linearGradient952"
     id="linearGradient954"
     x1="255.4669"
     y1="57.071007"
     x2="260.0018"
     y2="196.14174"
     gradientUnits="userSpaceOnUse" /></defs><sodipodi:namedview
   pagecolor="#ffffff"
   bordercolor="#666666"
   borderopacity="1"
   objecttolerance="10"
   gridtolerance="10"
   guidetolerance="10"
   inkscape:pageopacity="0"
   inkscape:pageshadow="2"
   inkscape:window-width="1920"
   inkscape:window-height="1017"
   id="namedview45"
   showgrid="false"
   inkscape:zoom="0.93555013"
   inkscape:cx="497.73794"
   inkscape:cy="166.89029"
   inkscape:window-x="-8"
   inkscape:window-y="-8"
   inkscape:window-maximized="1"
   inkscape:current-layer="Layer_1" />
<path
   style="fill:#0a67b2;stroke-width:0.79598325;fill-opacity:1"
   d="m 267.71077,374.99039 -22.61061,0.88704 -0.22176,48.99005 c 0,16.84707 -8.8665,30.14768 -25.93591,29.92648 -11.52707,0 -19.95061,-13.74356 -20.39414,-30.59065 -0.22175,-5.98529 -4.21176,-11.30587 -10.19705,-11.97002 -7.09354,-0.88648 -12.85708,4.43353 -12.85764,11.52707 0,0 1.33,13.30059 3.99057,19.95061 7.3153,18.84237 19.06357,31.92119 39.67946,32.14296 14.63059,0 27.26591,-6.42825 36.13297,-17.06941 7.53649,-8.86706 10.86179,-20.17236 11.30531,-31.69943 5.3e-4,-0.002 1.1088,-52.0947 1.1088,-52.0947 z M 254.63194,28.512489 c -3.54704,-1.1e-5 -6.42882,2.438242 -6.87234,5.985289 l -5.09881,41.896503 c -0.22177,0.221755 0,0.44352 0.44352,0.44352 l 23.2759,0.221766 c 0.44351,0 0.22176,-0.221755 0.44352,-0.44352 L 261.2814,34.719544 c -0.44297,-3.546492 -3.32418,-5.985301 -6.64946,-6.207055 z"
   id="path2"
   inkscape:connector-curvature="0" />
<path
   style="fill:#dadfe1;stroke-width:0.79598325"
   d="m 267.71077,374.99039 -22.61061,0.88704 -0.66529,-192.63487 h 22.61062 c 0,-0.001 0.66528,191.74783 0.66528,191.74783 z"
   id="path4"
   inkscape:connector-curvature="0" />
<path
   style="fill:#c4c8ca;stroke-width:0.79598325"
   d="m 244.8784,224.02969 h 22.61062 l -0.44353,-31.9212 -22.38886,-0.22176 z"
   id="path6"
   inkscape:connector-curvature="0" />
<path
   style="fill:url(#linearGradient946);stroke-width:0.79598325;fill-opacity:1"
   d="m 392.95676,200.08907 c 32.36472,1e-5 59.18712,12.1918 62.5124,27.93119 0.22176,-2.88176 0.44352,-6.20706 0.44352,-9.31058 0,-90.44359 -90.22183,-163.817202 -201.50194,-163.817214 -111.28012,1.2e-5 -201.502497,73.374184 -201.502505,163.816644 7e-6,3.10354 0.221765,5.9853 0.44353,9.31059 3.324725,-15.73883 30.147671,-27.93119 62.512395,-27.93119 31.47768,0 57.19181,11.52706 62.29063,26.37887 1.1088,2.88176 3.32529,5.09825 6.42882,5.09824 l 1.33057,1e-5 c 3.10352,0 5.54177,-1.99474 6.42882,-5.09825 4.87705,-15.07356 30.81239,-26.37944 62.29062,-26.37887 31.47768,0 57.19183,11.52707 62.29065,26.37887 1.1088,2.88176 3.32529,5.09825 6.42881,5.09825 h 1.33057 c 3.10351,0 5.54177,-1.99473 6.42881,-5.09825 4.43073,-15.073 30.58838,-26.60007 61.8443,-26.37831 z"
   id="path8"
   inkscape:connector-curvature="0" />

<path
   style="fill:url(#linearGradient954);stroke-width:0.79598325;fill-opacity:1"
   d="M 241.55367,55.335442 C 206.5295,88.143112 183.03128,150.65551 183.03129,222.92145 l 0.22175,8.20178 1.55176,0.2212 h 1.33058 c 3.10352,0 5.54176,-1.99474 6.42882,-5.09825 4.87704,-15.07355 30.81238,-26.37942 62.29062,-26.37887 31.47825,5.7e-4 57.19183,11.52707 62.29065,26.37887 1.1088,2.88176 3.32529,5.09825 6.42881,5.09825 h 1.33057 c 0.44351,0 0.88704,0 1.55175,-0.2212 l 0.22177,-8.20178 c -10e-6,-72.26594 -23.71943,-134.999536 -58.74415,-167.364254 -4.21177,-0.221199 -8.42354,-0.44352 -12.85707,-0.442964 -4.87818,-5.67e-4 -9.09051,0.221199 -13.52348,0.22121 z"
   id="path12"
   inkscape:connector-curvature="0" />
<g
   id="g14">
</g>
<g
   id="g16">
</g>
<g
   id="g18">
</g>
<g
   id="g20">
</g>
<g
   id="g22">
</g>
<g
   id="g24">
</g>
<g
   id="g26">
</g>
<g
   id="g28">
</g>
<g
   id="g30">
</g>
<g
   id="g32">
</g>
<g
   id="g34">
</g>
<g
   id="g36">
</g>
<g
   id="g38">
</g>
<g
   id="g40">
</g>
<g
   id="g42">
</g>
<rect
   ry="0"
   y="-14.638723"
   x="674.94507"
   height="48.717804"
   width="88.301018"
   id="rect1565"
   style="display:inline;opacity:1;fill:#5de1b3;fill-opacity:1;stroke-width:0.53285098" /><rect
   ry="0"
   y="34.078995"
   x="674.94507"
   height="48.717804"
   width="88.301018"
   id="rect1565-3"
   style="display:inline;opacity:1;fill:#0a67b2;fill-opacity:1;stroke-width:0.53285098" /><rect
   ry="0"
   y="34.078995"
   x="763.24634"
   height="48.717804"
   width="88.301018"
   id="rect1565-3-2"
   style="display:inline;opacity:1;fill:#2f2158;fill-opacity:1;stroke-width:0.53285098" /><rect
   ry="0"
   y="324.78842"
   x="674.94507"
   height="48.717804"
   width="88.301018"
   id="rect1565-3-2-8"
   style="display:inline;opacity:1;fill:#d4195e;fill-opacity:1;stroke-width:0.53285098" /><rect
   ry="0"
   y="106.93193"
   x="674.94507"
   height="48.717804"
   width="88.301018"
   id="rect1565-3-2-4"
   style="display:inline;opacity:1;fill:#f9e2d5;fill-opacity:1;stroke-width:0.53285098" /><rect
   ry="0"
   y="276.07095"
   x="674.94507"
   height="48.717804"
   width="88.301018"
   id="rect1565-3-2-4-7"
   style="display:inline;opacity:1;fill:#fe9a20;fill-opacity:1;stroke-width:0.53285098" /><rect
   ry="0"
   y="490.24384"
   x="674.94507"
   height="48.717804"
   width="88.301018"
   id="rect1565-3-2-4-7-8"
   style="display:inline;opacity:1;fill:#ffda44;fill-opacity:1;stroke-width:0.53285098" /><rect
   ry="0"
   y="490.24384"
   x="763.24634"
   height="48.717804"
   width="88.301018"
   id="rect1565-3-2-4-7-8-4"
   style="display:inline;opacity:1;fill:#ffcd00;fill-opacity:1;stroke-width:0.53285098" /><rect
   ry="0"
   y="276.07095"
   x="763.24634"
   height="48.717804"
   width="88.301018"
   id="rect1565-3-2-4-7-4"
   style="display:inline;opacity:1;fill:#e97713;fill-opacity:1;stroke-width:0.53285098" /><rect
   ry="0"
   y="106.93193"
   x="763.24634"
   height="48.717804"
   width="88.301018"
   id="rect1565-3-2-4-0"
   style="display:inline;opacity:1;fill:#f7baad;fill-opacity:1;stroke-width:0.53285098" /><rect
   ry="0"
   y="324.78842"
   x="763.24634"
   height="48.717804"
   width="88.301018"
   id="rect1565-3-2-8-3"
   style="display:inline;opacity:1;fill:#3d265a;fill-opacity:1;stroke-width:0.53285098" /><text
   id="text1734"
   y="14.993853"
   x="576.95367"
   style="font-style:normal;font-weight:normal;font-size:22.98583984px;line-height:1.25;font-family:sans-serif;letter-spacing:0px;word-spacing:0px;display:inline;fill:#000000;fill-opacity:1;stroke:none;stroke-width:0.57464612"
   xml:space="preserve"><tspan
     style="font-size:13.79150677px;stroke-width:0.57464612"
     y="14.993853"
     x="576.95367"
     id="tspan1732"
     sodipodi:role="line">TB-groen</tspan></text>
<text
   id="text1734-0"
   y="62.420456"
   x="576.95367"
   style="font-style:normal;font-weight:normal;font-size:22.98583984px;line-height:1.25;font-family:sans-serif;letter-spacing:0px;word-spacing:0px;display:inline;fill:#000000;fill-opacity:1;stroke:none;stroke-width:0.57464612"
   xml:space="preserve"><tspan
     id="tspan1754"
     style="font-size:13.79150677px;stroke-width:0.57464612"
     y="62.420456"
     x="576.95367"
     sodipodi:role="line">TB-blauw</tspan></text>
<text
   id="text1734-0-9"
   y="354.39191"
   x="575.57318"
   style="font-style:normal;font-weight:normal;font-size:22.98583984px;line-height:1.25;font-family:sans-serif;letter-spacing:0px;word-spacing:0px;display:inline;fill:#000000;fill-opacity:1;stroke:none;stroke-width:0.57464612"
   xml:space="preserve"><tspan
     id="tspan1754-0"
     style="font-size:13.79150677px;stroke-width:0.57464612"
     y="354.39191"
     x="575.57318"
     sodipodi:role="line">Kledij-roze</tspan></text>
<text
   id="text1734-0-9-3"
   y="135.24898"
   x="575.60693"
   style="font-style:normal;font-weight:normal;font-size:22.98583984px;line-height:1.25;font-family:sans-serif;letter-spacing:0px;word-spacing:0px;display:inline;fill:#000000;fill-opacity:1;stroke:none;stroke-width:0.57464612"
   xml:space="preserve"><tspan
     id="tspan1754-0-7"
     style="font-size:13.79150677px;stroke-width:0.57464612"
     y="135.24898"
     x="575.60693"
     sodipodi:role="line">Huidskleur</tspan></text>
<text
   id="text1734-0-9-4"
   y="305.80447"
   x="575.57318"
   style="font-style:normal;font-weight:normal;font-size:22.98583984px;line-height:1.25;font-family:sans-serif;letter-spacing:0px;word-spacing:0px;display:inline;fill:#000000;fill-opacity:1;stroke:none;stroke-width:0.57464612"
   xml:space="preserve"><tspan
     id="tspan1754-0-9"
     style="font-size:13.79150677px;stroke-width:0.57464612"
     y="305.80447"
     x="575.57318"
     sodipodi:role="line">Kledij-oranje</tspan></text>
<text
   id="text1734-0-9-4-5"
   y="517.34912"
   x="575.60693"
   style="font-style:normal;font-weight:normal;font-size:22.98583984px;line-height:1.25;font-family:sans-serif;letter-spacing:0px;word-spacing:0px;display:inline;fill:#000000;fill-opacity:1;stroke:none;stroke-width:0.57464612"
   xml:space="preserve"><tspan
     id="tspan1754-0-9-7"
     style="font-size:13.79150677px;stroke-width:0.57464612"
     y="517.34912"
     x="575.60693"
     sodipodi:role="line">Rating-geel</tspan></text>
<rect
   ry="0"
   y="538.96161"
   x="674.94507"
   height="48.717804"
   width="88.301018"
   id="rect1565-3-2-4-6"
   style="display:inline;opacity:1;fill:#fffefe;fill-opacity:1;stroke-width:0.53285098" /><rect
   ry="0"
   y="538.96161"
   x="763.24634"
   height="48.717804"
   width="88.301018"
   id="rect1565-3-2-4-0-6"
   style="display:inline;opacity:1;fill:#fbf7f6;fill-opacity:1;stroke-width:0.53285098" /><text
   id="text1734-0-9-4-5-3"
   y="566.93787"
   x="575.60693"
   style="font-style:normal;font-weight:normal;font-size:22.98583984px;line-height:1.25;font-family:sans-serif;letter-spacing:0px;word-spacing:0px;display:inline;fill:#000000;fill-opacity:1;stroke:none;stroke-width:0.57464612"
   xml:space="preserve"><tspan
     id="tspan1754-0-9-7-9"
     style="font-size:13.79150677px;stroke-width:0.57464612"
     y="566.93787"
     x="575.60693"
     sodipodi:role="line">Achtergrond</tspan></text>
<rect
   ry="0"
   y="155.6498"
   x="674.94507"
   height="48.717804"
   width="88.301018"
   id="rect1565-3-2-4-6-8"
   style="display:inline;opacity:1;fill:#a3382d;fill-opacity:1;stroke-width:0.53285098" /><text
   id="text1734-0-9-4-5-3-4"
   y="181.34641"
   x="574.43506"
   style="font-style:normal;font-weight:normal;font-size:22.98583984px;line-height:1.25;font-family:sans-serif;letter-spacing:0px;word-spacing:0px;display:inline;fill:#000000;fill-opacity:1;stroke:none;stroke-width:0.57464612"
   xml:space="preserve"><tspan
     id="tspan1754-0-9-7-9-4"
     style="font-size:13.79150677px;stroke-width:0.57464612"
     y="181.34641"
     x="574.43506"
     sodipodi:role="line">Haarkleur</tspan></text>
<rect
   ry="0"
   y="155.6498"
   x="763.24634"
   height="48.717804"
   width="88.301018"
   id="rect1565-3-2-4-6-8-3"
   style="display:inline;opacity:1;fill:#2f2158;fill-opacity:1;stroke-width:0.53285098" /><rect
   ry="0"
   y="-14.638723"
   x="763.24634"
   height="48.717804"
   width="88.301018"
   id="rect1565-5"
   style="display:inline;opacity:1;fill:#1c7065;fill-opacity:1;stroke-width:0.53285098" /><rect
   ry="0"
   y="227.3533"
   x="674.94507"
   height="48.717804"
   width="88.301018"
   id="rect1565-3-2-4-6-8-6"
   style="display:inline;opacity:1;fill:#087a99;fill-opacity:1;stroke-width:0.53285098" /><rect
   ry="0"
   y="227.3533"
   x="763.24634"
   height="48.717804"
   width="88.301018"
   id="rect1565-3-2-4-6-8-3-7"
   style="display:inline;opacity:1;fill:#042d59;fill-opacity:1;stroke-width:0.53285098" /><text
   id="text1734-0-9-4-3"
   y="255.41458"
   x="575.57318"
   style="font-style:normal;font-weight:normal;font-size:22.98583984px;line-height:1.25;font-family:sans-serif;letter-spacing:0px;word-spacing:0px;display:inline;fill:#000000;fill-opacity:1;stroke:none;stroke-width:0.57464612"
   xml:space="preserve"><tspan
     id="tspan1754-0-9-1"
     style="font-size:13.79150677px;stroke-width:0.57464612"
     y="255.41458"
     x="575.57318"
     sodipodi:role="line">Kledij-blauw</tspan></text>
<rect
   ry="0"
   y="373.50626"
   x="674.94507"
   height="48.717804"
   width="88.301018"
   id="rect1565-3-2-8-8"
   style="display:inline;opacity:1;fill:#5c5a7f;fill-opacity:1;stroke-width:0.53285092" /><rect
   ry="0"
   y="373.50626"
   x="763.24634"
   height="48.717804"
   width="88.301018"
   id="rect1565-3-2-8-3-4"
   style="display:inline;opacity:1;fill:#e4e4e4;fill-opacity:1;stroke-width:0.53285092" /><text
   id="text1734-0-9-5"
   y="403.10974"
   x="575.57318"
   style="font-style:normal;font-weight:normal;font-size:22.98583984px;line-height:1.25;font-family:sans-serif;letter-spacing:0px;word-spacing:0px;display:inline;fill:#000000;fill-opacity:1;stroke:none;stroke-width:0.57464612"
   xml:space="preserve"><tspan
     id="tspan1754-0-94"
     style="font-size:13.79150581px;stroke-width:0.57464612"
     y="403.10974"
     x="575.57318"
     sodipodi:role="line">Schoenen</tspan></text>
</svg>